<svg width="91" height="91" viewBox="0 0 91 91" fill="none" xmlns="http://www.w3.org/2000/svg">
<g filter="url(#filter0_d_762_19976)">
<circle cx="45.1978" cy="43.5146" r="41.5611" transform="rotate(-0.231467 45.1978 43.5146)" fill="url(#paint0_linear_762_19976)" stroke="#014579" stroke-width="0.540402"/>
<path d="M33.6467 25.5464C33.3063 25.5464 32.9799 25.6816 32.7392 25.9223C32.4985 26.163 32.3633 26.4894 32.3633 26.8298V60.1997C32.3633 60.5401 32.4985 60.8665 32.7392 61.1072C32.9799 61.3479 33.3063 61.4831 33.6467 61.4831H41.3475V58.9162H34.9302V28.1133H55.4655V40.9479H58.0324V26.8298C58.0324 26.4894 57.8972 26.163 57.6565 25.9223C57.4158 25.6816 57.0893 25.5464 56.7489 25.5464H33.6467Z" fill="white"/>
<path d="M37.4971 35.814H52.8985V33.2471H37.4971V35.814ZM37.4971 40.9478H47.7647V38.3809H37.4971V40.9478Z" fill="white"/>
<path fill-rule="evenodd" clip-rule="evenodd" d="M51.615 43.5149C49.2323 43.5149 46.9471 44.4614 45.2623 46.1463C43.5774 47.8312 42.6309 50.1163 42.6309 52.4991C42.6309 54.8818 43.5774 57.167 45.2623 58.8519C46.9471 60.5367 49.2323 61.4833 51.615 61.4833C53.9978 61.4833 56.283 60.5367 57.9678 58.8519C59.6527 57.167 60.5992 54.8818 60.5992 52.4991C60.5992 50.1163 59.6527 47.8312 57.9678 46.1463C56.283 44.4614 53.9978 43.5149 51.615 43.5149ZM50.3316 47.3653V52.4991C50.3313 52.6677 50.3642 52.8348 50.4285 52.9907C50.4928 53.1466 50.5873 53.2884 50.7064 53.4078L54.5567 57.2581L56.3741 55.4408L52.8985 51.9677V47.3653H50.3316Z" fill="white"/>
</g>
<defs>
<filter id="filter0_d_762_19976" x="-0.168325" y="-0.168147" width="90.7322" height="90.7322" filterUnits="userSpaceOnUse" color-interpolation-filters="sRGB">
<feFlood flood-opacity="0" result="BackgroundImageFix"/>
<feColorMatrix in="SourceAlpha" type="matrix" values="0 0 0 0 0 0 0 0 0 0 0 0 0 0 0 0 0 0 127 0" result="hardAlpha"/>
<feOffset dy="1.68304"/>
<feGaussianBlur stdDeviation="1.68304"/>
<feComposite in2="hardAlpha" operator="out"/>
<feColorMatrix type="matrix" values="0 0 0 0 0 0 0 0 0 0 0 0 0 0 0 0 0 0 0.25 0"/>
<feBlend mode="normal" in2="BackgroundImageFix" result="effect1_dropShadow_762_19976"/>
<feBlend mode="normal" in="SourceGraphic" in2="effect1_dropShadow_762_19976" result="shape"/>
</filter>
<linearGradient id="paint0_linear_762_19976" x1="45.1978" y1="1.6832" x2="45.1978" y2="85.3459" gradientUnits="userSpaceOnUse">
<stop stop-color="#698AF8"/>
<stop offset="1" stop-color="#5EDB9A"/>
</linearGradient>
</defs>
</svg>
