<svg width="42" height="42" viewBox="0 0 42 42" fill="none" xmlns="http://www.w3.org/2000/svg">
<path d="M8.98414 2.56689C8.64375 2.56689 8.31729 2.70212 8.0766 2.94281C7.8359 3.1835 7.70068 3.50996 7.70068 3.85035V37.2202C7.70068 37.5606 7.8359 37.887 8.0766 38.1277C8.31729 38.3684 8.64375 38.5036 8.98414 38.5036H16.6849V35.9367H10.2676V5.13381H30.8029V17.9684H33.3698V3.85035C33.3698 3.50996 33.2346 3.1835 32.9939 2.94281C32.7532 2.70212 32.4267 2.56689 32.0863 2.56689H8.98414Z" fill="white"/>
<path d="M12.8345 12.8345H28.2359V10.2676H12.8345V12.8345ZM12.8345 17.9683H23.1021V15.4014H12.8345V17.9683Z" fill="white"/>
<path fill-rule="evenodd" clip-rule="evenodd" d="M26.9524 20.5354C24.5697 20.5354 22.2845 21.4819 20.5997 23.1668C18.9148 24.8517 17.9683 27.1368 17.9683 29.5196C17.9683 31.9023 18.9148 34.1875 20.5997 35.8724C22.2845 37.5572 24.5697 38.5038 26.9524 38.5038C29.3352 38.5038 31.6204 37.5572 33.3052 35.8724C34.9901 34.1875 35.9366 31.9023 35.9366 29.5196C35.9366 27.1368 34.9901 24.8517 33.3052 23.1668C31.6204 21.4819 29.3352 20.5354 26.9524 20.5354ZM25.669 24.3858V29.5196C25.6687 29.6882 25.7016 29.8553 25.7659 30.0112C25.8302 30.1671 25.9247 30.3089 26.0438 30.4283L29.8941 34.2786L31.7115 32.4613L28.2359 28.9882V24.3858H25.669Z" fill="white"/>
</svg>
