<svg width="24" height="24" viewBox="0 0 24 24" fill="none" xmlns="http://www.w3.org/2000/svg">
<g clip-path="url(#clip0_1318_208)">
<path fill-rule="evenodd" clip-rule="evenodd" d="M18 12C18 11.7348 17.8692 11.4804 17.6364 11.2929C17.4036 11.1054 17.0879 11 16.7586 11L1.24138 11C0.912146 11 0.596397 11.1054 0.363594 11.2929C0.130791 11.4804 0 11.7348 0 12C0 12.2652 0.130791 12.5196 0.363594 12.7071C0.596397 12.8946 0.912146 13 1.24138 13L16.7586 13C17.0879 13 17.4036 12.8946 17.6364 12.7071C17.8692 12.5196 18 12.2652 18 12Z" fill="white"/>
<path fill-rule="evenodd" clip-rule="evenodd" d="M19.7852 11.9998C19.7851 11.7346 19.6797 11.4803 19.4922 11.2928L14.9922 6.79279C14.8046 6.60515 14.5503 6.49969 14.285 6.49959C14.0197 6.4995 13.7653 6.60479 13.5777 6.79229C13.39 6.9798 13.2845 7.23417 13.2845 7.49944C13.2844 7.76471 13.3896 8.01915 13.5772 8.20679L17.3712 11.9998L13.5782 15.7928C13.3906 15.9804 13.2854 16.2349 13.2855 16.5002C13.2855 16.7654 13.391 17.0198 13.5787 17.2073C13.7663 17.3948 14.0207 17.5001 14.286 17.5C14.5513 17.4999 14.8056 17.3944 14.9932 17.2068L19.4932 12.7068C19.6803 12.5191 19.7854 12.2648 19.7852 11.9998Z" fill="white"/>
</g>
<defs>
<clipPath id="clip0_1318_208">
<rect width="24" height="24" fill="white" transform="matrix(0 -1 -1 0 24 24)"/>
</clipPath>
</defs>
</svg>
