<svg width="16" height="16" viewBox="0 0 16 16" fill="none" xmlns="http://www.w3.org/2000/svg">
<path d="M8 1.5C9.72391 1.5 11.3777 2.18433 12.5967 3.40332C13.8157 4.62231 14.5 6.27609 14.5 8C14.5 9.72391 13.8157 11.3777 12.5967 12.5967C11.3777 13.8157 9.72391 14.5 8 14.5C6.27609 14.5 4.62231 13.8157 3.40332 12.5967C2.18433 11.3777 1.5 9.72391 1.5 8C1.5 6.27609 2.18433 4.62231 3.40332 3.40332C4.62231 2.18433 6.27609 1.5 8 1.5ZM7.5 3.5C7.23478 3.5 6.9805 3.60543 6.79297 3.79297C6.60543 3.9805 6.5 4.23478 6.5 4.5V8.5C6.5 8.76522 6.60543 9.01949 6.79297 9.20703C6.98051 9.39457 7.23478 9.5 7.5 9.5H10.5C10.7652 9.5 11.0195 9.39457 11.207 9.20703C11.3946 9.01949 11.5 8.76522 11.5 8.5C11.5 8.23479 11.3946 7.98051 11.207 7.79297C11.0195 7.60543 10.7652 7.5 10.5 7.5H8.5V4.5C8.5 4.23478 8.39457 3.9805 8.20703 3.79297C8.0195 3.60543 7.76522 3.5 7.5 3.5Z" stroke="#E0E0E0"/>
</svg>
