<svg width="89" height="89" viewBox="0 0 89 89" fill="none" xmlns="http://www.w3.org/2000/svg">
<g filter="url(#filter0_d_762_19972)">
<circle cx="44.1816" cy="43.0908" r="41.8255" fill="url(#paint0_linear_762_19972)" stroke="#014579" stroke-width="0.349091"/>
<g clip-path="url(#clip0_762_19972)">
<path d="M50.5909 35.9998H34.6818C34.3804 35.9998 34.0914 35.8801 33.8782 35.667C33.6651 35.4539 33.5454 35.1648 33.5454 34.8635V30.318C33.5454 30.0166 33.6651 29.7276 33.8782 29.5145C34.0914 29.3014 34.3804 29.1816 34.6818 29.1816H50.5909C50.8922 29.1816 51.1813 29.3014 51.3944 29.5145C51.6075 29.7276 51.7272 30.0166 51.7272 30.318V34.8635C51.7272 35.1648 51.6075 35.4539 51.3944 35.667C51.1813 35.8801 50.8922 35.9998 50.5909 35.9998ZM35.8181 33.7271H49.4545V31.3862H35.8181V33.7271Z" fill="white"/>
<path d="M50.5909 38.3613H34.6818C34.3804 38.3613 34.0914 38.4811 33.8782 38.6942C33.6651 38.9073 33.5454 39.1963 33.5454 39.4977V43.9522C33.5454 44.2536 33.6651 44.5427 33.8782 44.7558C34.0914 44.9689 34.3804 45.0886 34.6818 45.0886H47.5909L51.7272 40.8841V39.4977C51.7272 39.1963 51.6075 38.9073 51.3944 38.6942C51.1813 38.4811 50.8922 38.3613 50.5909 38.3613ZM49.4545 42.8159H35.8181V40.5431H49.4545V42.8159Z" fill="white"/>
<path d="M39.2955 58.1703V58.1021L39.6591 56.5226H31.2727V26.909H54V38.5567L56.2727 36.409V25.7726C56.2727 25.4712 56.153 25.1822 55.9399 24.9691C55.7268 24.756 55.4377 24.6362 55.1364 24.6362H30.1364C29.835 24.6362 29.5459 24.756 29.3328 24.9691C29.1197 25.1822 29 25.4712 29 25.7726V57.5908C29 57.8922 29.1197 58.1812 29.3328 58.3943C29.5459 58.6074 29.835 58.7271 30.1364 58.7271H39.2273C39.2365 58.5401 39.2593 58.354 39.2955 58.1703Z" fill="white"/>
<path d="M51.7277 44.1497L50.8413 45.0474C51.0612 45.0021 51.2628 44.8926 51.4205 44.7328C51.5783 44.573 51.6851 44.3701 51.7277 44.1497Z" fill="white"/>
<path d="M33.5454 52.9772C33.5454 53.2785 33.6651 53.5676 33.8782 53.7807C34.0914 53.9938 34.3804 54.1135 34.6818 54.1135H40.1818L40.5227 52.6363L40.6704 52.0113V51.9544H35.8181V49.6363H43.0227L45.2954 47.3635H34.6818C34.3804 47.3635 34.0914 47.4832 33.8782 47.6964C33.6651 47.9095 33.5454 48.1985 33.5454 48.4999V52.9772Z" fill="white"/>
<path d="M64.7829 41.3081L60.9533 37.4786C60.7834 37.3081 60.5815 37.1729 60.3592 37.0807C60.1369 36.9884 59.8986 36.9409 59.6579 36.9409C59.4172 36.9409 59.1789 36.9884 58.9566 37.0807C58.7343 37.1729 58.5324 37.3081 58.3624 37.4786L42.7829 53.149L41.4988 58.6149C41.4507 58.8507 41.4496 59.0937 41.4956 59.3299C41.5416 59.5661 41.6337 59.791 41.7667 59.9915C41.8997 60.1921 42.071 60.3645 42.2707 60.4987C42.4704 60.633 42.6947 60.7265 42.9306 60.774C43.0478 60.7854 43.1657 60.7854 43.2829 60.774C43.4222 60.7957 43.564 60.7957 43.7033 60.774L49.2147 59.5581L64.7829 43.9558C64.953 43.7868 65.0879 43.5859 65.18 43.3645C65.2721 43.1432 65.3196 42.9058 65.3196 42.6661C65.3196 42.4263 65.2721 42.1889 65.18 41.9676C65.0879 41.7462 64.953 41.5453 64.7829 41.3763V41.3081ZM48.0556 57.4899L43.8965 58.4104L44.9079 54.2854L56.5897 42.4786L59.7942 45.6831L48.0556 57.4899ZM61.0783 44.399L57.8738 41.1945L59.6806 39.4104L62.9079 42.6376L61.0783 44.399Z" fill="white"/>
</g>
</g>
<defs>
<filter id="filter0_d_762_19972" x="-0.000177622" y="-8.88109e-05" width="88.3636" height="88.3636" filterUnits="userSpaceOnUse" color-interpolation-filters="sRGB">
<feFlood flood-opacity="0" result="BackgroundImageFix"/>
<feColorMatrix in="SourceAlpha" type="matrix" values="0 0 0 0 0 0 0 0 0 0 0 0 0 0 0 0 0 0 127 0" result="hardAlpha"/>
<feOffset dy="1.09091"/>
<feGaussianBlur stdDeviation="1.09091"/>
<feComposite in2="hardAlpha" operator="out"/>
<feColorMatrix type="matrix" values="0 0 0 0 0 0 0 0 0 0 0 0 0 0 0 0 0 0 0.25 0"/>
<feBlend mode="normal" in2="BackgroundImageFix" result="effect1_dropShadow_762_19972"/>
<feBlend mode="normal" in="SourceGraphic" in2="effect1_dropShadow_762_19972" result="shape"/>
</filter>
<linearGradient id="paint0_linear_762_19972" x1="44.1816" y1="1.09082" x2="44.1816" y2="85.0908" gradientUnits="userSpaceOnUse">
<stop stop-color="#698AF8"/>
<stop offset="1" stop-color="#5EDB9A"/>
</linearGradient>
<clipPath id="clip0_762_19972">
<rect width="40.9091" height="40.9091" fill="white" transform="translate(26.7271 22.3635)"/>
</clipPath>
</defs>
</svg>
