<svg width="41" height="41" viewBox="0 0 41 41" fill="none" xmlns="http://www.w3.org/2000/svg">
<g clip-path="url(#clip0_971_14110)">
<path d="M23.8638 13.6363H7.95472C7.65334 13.6363 7.3643 13.5166 7.15119 13.3035C6.93808 13.0904 6.81836 12.8013 6.81836 12.4999V7.95448C6.81836 7.6531 6.93808 7.36406 7.15119 7.15095C7.3643 6.93784 7.65334 6.81812 7.95472 6.81812H23.8638C24.1652 6.81812 24.4542 6.93784 24.6673 7.15095C24.8805 7.36406 25.0002 7.6531 25.0002 7.95448V12.4999C25.0002 12.8013 24.8805 13.0904 24.6673 13.3035C24.4542 13.5166 24.1652 13.6363 23.8638 13.6363ZM9.09109 11.3636H22.7275V9.02266H9.09109V11.3636Z" fill="white"/>
<path d="M23.8638 15.9978H7.95472C7.65334 15.9978 7.3643 16.1175 7.15119 16.3306C6.93808 16.5437 6.81836 16.8328 6.81836 17.1342V21.5887C6.81836 21.8901 6.93808 22.1791 7.15119 22.3922C7.3643 22.6054 7.65334 22.7251 7.95472 22.7251H20.8638L25.0002 18.5205V17.1342C25.0002 16.8328 24.8805 16.5437 24.6673 16.3306C24.4542 16.1175 24.1652 15.9978 23.8638 15.9978ZM22.7275 20.4523H9.09109V18.1796H22.7275V20.4523Z" fill="white"/>
<path d="M12.5684 35.8068V35.7386L12.932 34.1591H4.54568V4.54543H27.273V16.1932L29.5457 14.0454V3.40907C29.5457 3.10769 29.426 2.81865 29.2128 2.60554C28.9997 2.39243 28.7107 2.27271 28.4093 2.27271H3.40931C3.10793 2.27271 2.81889 2.39243 2.60578 2.60554C2.39267 2.81865 2.27295 3.10769 2.27295 3.40907V35.2272C2.27295 35.5286 2.39267 35.8177 2.60578 36.0308C2.81889 36.2439 3.10793 36.3636 3.40931 36.3636H12.5002C12.5094 36.1766 12.5322 35.9905 12.5684 35.8068Z" fill="white"/>
<path d="M25.0006 21.7861L24.1143 22.6839C24.3342 22.6385 24.5357 22.5291 24.6935 22.3693C24.8512 22.2095 24.9581 22.0066 25.0006 21.7861Z" fill="white"/>
<path d="M6.81836 30.6136C6.81836 30.915 6.93808 31.2041 7.15119 31.4172C7.3643 31.6303 7.65334 31.75 7.95472 31.75H13.4547L13.7956 30.2727L13.9434 29.6477V29.5909H9.09109V27.2727H16.2956L18.5684 25H7.95472C7.65334 25 7.3643 25.1197 7.15119 25.3328C6.93808 25.5459 6.81836 25.835 6.81836 26.1364V30.6136Z" fill="white"/>
<path d="M38.0558 18.9446L34.2263 15.115C34.0563 14.9446 33.8544 14.8094 33.6321 14.7171C33.4098 14.6249 33.1715 14.5774 32.9308 14.5774C32.6901 14.5774 32.4518 14.6249 32.2295 14.7171C32.0072 14.8094 31.8053 14.9446 31.6354 15.115L16.0558 30.7855L14.7717 36.2514C14.7237 36.4872 14.7226 36.7302 14.7686 36.9664C14.8145 37.2026 14.9067 37.4275 15.0397 37.628C15.1727 37.8286 15.3439 38.0009 15.5437 38.1352C15.7434 38.2695 15.9676 38.363 16.2036 38.4105C16.3207 38.4219 16.4387 38.4219 16.5558 38.4105C16.6951 38.4322 16.837 38.4322 16.9763 38.4105L22.4877 37.1946L38.0558 21.5923C38.2259 21.4233 38.3609 21.2224 38.453 21.001C38.5451 20.7797 38.5925 20.5423 38.5925 20.3025C38.5925 20.0628 38.5451 19.8254 38.453 19.604C38.3609 19.3827 38.2259 19.1817 38.0558 19.0128V18.9446ZM21.3286 35.1264L17.1695 36.0468L18.1808 31.9218L29.8627 20.115L33.0672 23.3196L21.3286 35.1264ZM34.3513 22.0355L31.1467 18.8309L32.9536 17.0468L36.1808 20.2741L34.3513 22.0355Z" fill="white"/>
</g>
<defs>
<clipPath id="clip0_971_14110">
<rect width="40.9091" height="40.9091" fill="white"/>
</clipPath>
</defs>
</svg>
