<svg width="20" height="20" viewBox="0 0 20 20" fill="none" xmlns="http://www.w3.org/2000/svg">
<path d="M17.5985 3.76971H2.40283C1.79877 3.76971 1.30908 4.2594 1.30908 4.86346V15.1372C1.30908 15.7413 1.79877 16.231 2.40283 16.231H17.5985C18.2025 16.231 18.6922 15.7413 18.6922 15.1372V4.86346C18.6922 4.2594 18.2025 3.76971 17.5985 3.76971Z" fill="url(#paint0_linear_959_7898)"/>
<path d="M17.5985 3.76971H2.40283C1.79877 3.76971 1.30908 4.2594 1.30908 4.86346V15.1372C1.30908 15.7413 1.79877 16.231 2.40283 16.231H17.5985C18.2025 16.231 18.6922 15.7413 18.6922 15.1372V4.86346C18.6922 4.2594 18.2025 3.76971 17.5985 3.76971Z" fill="url(#paint1_linear_959_7898)"/>
<path d="M10.0003 3.76936V16.2312H2.40283C2.11275 16.2312 1.83455 16.116 1.62943 15.9109C1.42432 15.7058 1.30908 15.4276 1.30908 15.1375V4.86249C1.30908 4.25874 1.79846 3.76874 2.40283 3.76874L10.0003 3.76936Z" fill="url(#paint2_linear_959_7898)"/>
<path d="M10.0003 3.76936V16.2312H2.40283C2.11275 16.2312 1.83455 16.116 1.62943 15.9109C1.42432 15.7058 1.30908 15.4276 1.30908 15.1375V4.86249C1.30908 4.25874 1.79846 3.76874 2.40283 3.76874L10.0003 3.76936Z" fill="url(#paint3_radial_959_7898)"/>
<path d="M10 3.76936V16.2312H17.5975C17.8876 16.2312 18.1658 16.116 18.3709 15.9109C18.576 15.7058 18.6912 15.4276 18.6912 15.1375V4.86249C18.6912 4.57241 18.576 4.29421 18.3709 4.08909C18.1658 3.88397 17.8876 3.76874 17.5975 3.76874L10 3.76936Z" fill="url(#paint4_linear_959_7898)"/>
<path d="M10 3.76936V16.2312H17.5975C17.8876 16.2312 18.1658 16.116 18.3709 15.9109C18.576 15.7058 18.6912 15.4276 18.6912 15.1375V4.86249C18.6912 4.57241 18.576 4.29421 18.3709 4.08909C18.1658 3.88397 17.8876 3.76874 17.5975 3.76874L10 3.76936Z" fill="url(#paint5_linear_959_7898)"/>
<path d="M10 3.76936V16.2312H17.5975C17.8876 16.2312 18.1658 16.116 18.3709 15.9109C18.576 15.7058 18.6912 15.4276 18.6912 15.1375V4.86249C18.6912 4.57241 18.576 4.29421 18.3709 4.08909C18.1658 3.88397 17.8876 3.76874 17.5975 3.76874L10 3.76936Z" fill="url(#paint6_linear_959_7898)"/>
<path d="M10 3.76936V16.2312H17.5975C17.8876 16.2312 18.1658 16.116 18.3709 15.9109C18.576 15.7058 18.6912 15.4276 18.6912 15.1375V4.86249C18.6912 4.57241 18.576 4.29421 18.3709 4.08909C18.1658 3.88397 17.8876 3.76874 17.5975 3.76874L10 3.76936Z" fill="url(#paint7_linear_959_7898)"/>
<g filter="url(#filter0_i_959_7898)">
<path d="M1.30873 15.1368C1.30862 15.0561 1.32911 14.9766 1.36826 14.9059C1.40741 14.8353 1.46393 14.7758 1.53248 14.7331L9.86248 9.52683C9.90221 9.502 9.94812 9.48883 9.99498 9.48883C10.0418 9.48883 10.0877 9.502 10.1275 9.52683L18.4856 14.765C18.6137 14.845 18.6919 14.9856 18.6919 15.1368C18.6919 15.4269 18.5766 15.7051 18.3715 15.9102C18.1664 16.1153 17.8882 16.2306 17.5981 16.2306H2.40186C2.11177 16.2306 1.83358 16.1153 1.62846 15.9102C1.42334 15.7051 1.30811 15.4269 1.30811 15.1368" fill="url(#paint8_linear_959_7898)"/>
</g>
<path d="M1.30873 15.1368C1.30862 15.0561 1.32911 14.9766 1.36826 14.9059C1.40741 14.8353 1.46393 14.7758 1.53248 14.7331L9.86248 9.52683C9.90221 9.502 9.94812 9.48883 9.99498 9.48883C10.0418 9.48883 10.0877 9.502 10.1275 9.52683L18.4856 14.765C18.6137 14.845 18.6919 14.9856 18.6919 15.1368C18.6919 15.4269 18.5766 15.7051 18.3715 15.9102C18.1664 16.1153 17.8882 16.2306 17.5981 16.2306H2.40186C2.11177 16.2306 1.83358 16.1153 1.62846 15.9102C1.42334 15.7051 1.30811 15.4269 1.30811 15.1368" fill="url(#paint9_linear_959_7898)"/>
<path d="M1.30873 15.1368C1.30862 15.0561 1.32911 14.9766 1.36826 14.9059C1.40741 14.8353 1.46393 14.7758 1.53248 14.7331L9.86248 9.52683C9.90221 9.502 9.94812 9.48883 9.99498 9.48883C10.0418 9.48883 10.0877 9.502 10.1275 9.52683L18.4856 14.765C18.6137 14.845 18.6919 14.9856 18.6919 15.1368C18.6919 15.4269 18.5766 15.7051 18.3715 15.9102C18.1664 16.1153 17.8882 16.2306 17.5981 16.2306H2.40186C2.11177 16.2306 1.83358 16.1153 1.62846 15.9102C1.42334 15.7051 1.30811 15.4269 1.30811 15.1368" fill="url(#paint10_linear_959_7898)"/>
<g filter="url(#filter1_ii_959_7898)">
<path d="M1.30873 4.86346C1.30862 4.94423 1.32911 5.0237 1.36826 5.09435C1.40741 5.16499 1.46393 5.22449 1.53248 5.26721L9.86248 10.4735C9.90221 10.4983 9.94812 10.5115 9.99498 10.5115C10.0418 10.5115 10.0877 10.4983 10.1275 10.4735L18.4856 5.23534C18.5487 5.19592 18.6007 5.14111 18.6368 5.07606C18.6729 5.01101 18.6918 4.93785 18.6919 4.86346C18.6919 4.57338 18.5766 4.29518 18.3715 4.09007C18.1664 3.88495 17.8882 3.76971 17.5981 3.76971H2.40186C2.11177 3.76971 1.83358 3.88495 1.62846 4.09007C1.42334 4.29518 1.30811 4.57338 1.30811 4.86346" fill="url(#paint11_linear_959_7898)"/>
<path d="M1.30873 4.86346C1.30862 4.94423 1.32911 5.0237 1.36826 5.09435C1.40741 5.16499 1.46393 5.22449 1.53248 5.26721L9.86248 10.4735C9.90221 10.4983 9.94812 10.5115 9.99498 10.5115C10.0418 10.5115 10.0877 10.4983 10.1275 10.4735L18.4856 5.23534C18.5487 5.19592 18.6007 5.14111 18.6368 5.07606C18.6729 5.01101 18.6918 4.93785 18.6919 4.86346C18.6919 4.57338 18.5766 4.29518 18.3715 4.09007C18.1664 3.88495 17.8882 3.76971 17.5981 3.76971H2.40186C2.11177 3.76971 1.83358 3.88495 1.62846 4.09007C1.42334 4.29518 1.30811 4.57338 1.30811 4.86346" fill="url(#paint12_linear_959_7898)"/>
<path d="M1.30873 4.86346C1.30862 4.94423 1.32911 5.0237 1.36826 5.09435C1.40741 5.16499 1.46393 5.22449 1.53248 5.26721L9.86248 10.4735C9.90221 10.4983 9.94812 10.5115 9.99498 10.5115C10.0418 10.5115 10.0877 10.4983 10.1275 10.4735L18.4856 5.23534C18.5487 5.19592 18.6007 5.14111 18.6368 5.07606C18.6729 5.01101 18.6918 4.93785 18.6919 4.86346C18.6919 4.57338 18.5766 4.29518 18.3715 4.09007C18.1664 3.88495 17.8882 3.76971 17.5981 3.76971H2.40186C2.11177 3.76971 1.83358 3.88495 1.62846 4.09007C1.42334 4.29518 1.30811 4.57338 1.30811 4.86346" fill="url(#paint13_linear_959_7898)"/>
<path d="M1.30873 4.86346C1.30862 4.94423 1.32911 5.0237 1.36826 5.09435C1.40741 5.16499 1.46393 5.22449 1.53248 5.26721L9.86248 10.4735C9.90221 10.4983 9.94812 10.5115 9.99498 10.5115C10.0418 10.5115 10.0877 10.4983 10.1275 10.4735L18.4856 5.23534C18.5487 5.19592 18.6007 5.14111 18.6368 5.07606C18.6729 5.01101 18.6918 4.93785 18.6919 4.86346C18.6919 4.57338 18.5766 4.29518 18.3715 4.09007C18.1664 3.88495 17.8882 3.76971 17.5981 3.76971H2.40186C2.11177 3.76971 1.83358 3.88495 1.62846 4.09007C1.42334 4.29518 1.30811 4.57338 1.30811 4.86346" fill="url(#paint14_radial_959_7898)"/>
</g>
<g filter="url(#filter2_f_959_7898)">
<path d="M9.58057 14.67C10.7409 14.67 11.8537 14.209 12.6742 13.3886C13.4946 12.5681 13.9556 11.4553 13.9556 10.295C13.9556 9.13466 13.4946 8.02186 12.6742 7.20139C11.8537 6.38092 10.7409 5.91998 9.58057 5.91998C8.42024 5.91998 7.30745 6.38092 6.48697 7.20139C5.6665 8.02186 5.20557 9.13466 5.20557 10.295C5.20557 11.4553 5.6665 12.5681 6.48697 13.3886C7.30745 14.209 8.42024 14.67 9.58057 14.67Z" fill="#3C0D52"/>
</g>
<g filter="url(#filter3_iii_959_7898)">
<path d="M9.9707 14.375C11.131 14.375 12.2438 13.9141 13.0643 13.0936C13.8848 12.2731 14.3457 11.1603 14.3457 10C14.3457 8.83968 13.8848 7.72688 13.0643 6.90641C12.2438 6.08594 11.131 5.625 9.9707 5.625C8.81038 5.625 7.69758 6.08594 6.87711 6.90641C6.05664 7.72688 5.5957 8.83968 5.5957 10C5.5957 11.1603 6.05664 12.2731 6.87711 13.0936C7.69758 13.9141 8.81038 14.375 9.9707 14.375Z" fill="url(#paint15_linear_959_7898)"/>
</g>
<g filter="url(#filter4_dii_959_7898)">
<path d="M9.97061 7.18746C9.21436 7.17496 8.49561 7.46246 7.95811 7.99996C7.41436 8.53121 7.12061 9.24371 7.12061 9.99996C7.12061 11.55 8.38311 12.8125 9.93311 12.8125C10.011 12.8125 10.0857 12.7815 10.1408 12.7264C10.1959 12.6713 10.2269 12.5966 10.2269 12.5187C10.2269 12.4408 10.1959 12.3661 10.1408 12.311C10.0857 12.2559 10.011 12.225 9.93311 12.225C8.70811 12.225 7.70811 11.225 7.70811 9.99996C7.70811 9.39996 7.94561 8.83746 8.37061 8.41871C8.79561 7.99996 9.36436 7.77496 9.96436 7.77496C11.1706 7.79371 12.1581 8.80621 12.1581 10.0375V10.5437C12.1581 10.6548 12.114 10.7613 12.0355 10.8398C11.9569 10.9183 11.8504 10.9625 11.7394 10.9625C11.6283 10.9625 11.5218 10.9183 11.4433 10.8398C11.3647 10.7613 11.3206 10.6548 11.3206 10.5437V8.61871C11.3206 8.54081 11.2897 8.46609 11.2346 8.411C11.1795 8.35591 11.1048 8.32496 11.0269 8.32496C10.8644 8.32496 10.7206 8.45621 10.7206 8.61871V8.67496C10.4456 8.45621 10.1019 8.31871 9.72061 8.31871C8.84561 8.31871 8.13311 9.03121 8.13311 9.90621C8.13311 10.7812 8.84561 11.4937 9.72061 11.4937C10.1581 11.4937 10.5581 11.3125 10.8456 11.025C11.0206 11.3375 11.3519 11.55 11.7331 11.55C12.2894 11.55 12.7456 11.0937 12.7456 10.5375V10.0312C12.7456 8.48746 11.5019 7.20621 9.97061 7.18746ZM9.72686 10.9125C9.17686 10.9125 8.72686 10.4625 8.72686 9.91246C8.72686 9.36246 9.17686 8.91246 9.72686 8.91246C10.2769 8.91246 10.7269 9.36246 10.7269 9.91246C10.7269 10.4625 10.2769 10.9125 9.72686 10.9125Z" fill="white"/>
</g>
<defs>
<filter id="filter0_i_959_7898" x="1.30811" y="8.73883" width="17.3838" height="7.49176" filterUnits="userSpaceOnUse" color-interpolation-filters="sRGB">
<feFlood flood-opacity="0" result="BackgroundImageFix"/>
<feBlend mode="normal" in="SourceGraphic" in2="BackgroundImageFix" result="shape"/>
<feColorMatrix in="SourceAlpha" type="matrix" values="0 0 0 0 0 0 0 0 0 0 0 0 0 0 0 0 0 0 127 0" result="hardAlpha"/>
<feOffset dy="-0.75"/>
<feGaussianBlur stdDeviation="0.75"/>
<feComposite in2="hardAlpha" operator="arithmetic" k2="-1" k3="1"/>
<feColorMatrix type="matrix" values="0 0 0 0 0.819608 0 0 0 0 0.654902 0 0 0 0 0.933333 0 0 0 1 0"/>
<feBlend mode="normal" in2="shape" result="effect1_innerShadow_959_7898"/>
</filter>
<filter id="filter1_ii_959_7898" x="1.30811" y="3.61971" width="17.3838" height="7.14176" filterUnits="userSpaceOnUse" color-interpolation-filters="sRGB">
<feFlood flood-opacity="0" result="BackgroundImageFix"/>
<feBlend mode="normal" in="SourceGraphic" in2="BackgroundImageFix" result="shape"/>
<feColorMatrix in="SourceAlpha" type="matrix" values="0 0 0 0 0 0 0 0 0 0 0 0 0 0 0 0 0 0 127 0" result="hardAlpha"/>
<feOffset dy="-0.15"/>
<feGaussianBlur stdDeviation="0.225"/>
<feComposite in2="hardAlpha" operator="arithmetic" k2="-1" k3="1"/>
<feColorMatrix type="matrix" values="0 0 0 0 0.827451 0 0 0 0 0.686275 0 0 0 0 0.913725 0 0 0 1 0"/>
<feBlend mode="normal" in2="shape" result="effect1_innerShadow_959_7898"/>
<feColorMatrix in="SourceAlpha" type="matrix" values="0 0 0 0 0 0 0 0 0 0 0 0 0 0 0 0 0 0 127 0" result="hardAlpha"/>
<feOffset dy="0.25"/>
<feGaussianBlur stdDeviation="0.3"/>
<feComposite in2="hardAlpha" operator="arithmetic" k2="-1" k3="1"/>
<feColorMatrix type="matrix" values="0 0 0 0 0.870588 0 0 0 0 0.858824 0 0 0 0 0.854902 0 0 0 1 0"/>
<feBlend mode="normal" in2="effect1_innerShadow_959_7898" result="effect2_innerShadow_959_7898"/>
</filter>
<filter id="filter2_f_959_7898" x="3.70557" y="4.41998" width="11.75" height="11.75" filterUnits="userSpaceOnUse" color-interpolation-filters="sRGB">
<feFlood flood-opacity="0" result="BackgroundImageFix"/>
<feBlend mode="normal" in="SourceGraphic" in2="BackgroundImageFix" result="shape"/>
<feGaussianBlur stdDeviation="0.75" result="effect1_foregroundBlur_959_7898"/>
</filter>
<filter id="filter3_iii_959_7898" x="5.4457" y="5.375" width="9.15" height="9.25" filterUnits="userSpaceOnUse" color-interpolation-filters="sRGB">
<feFlood flood-opacity="0" result="BackgroundImageFix"/>
<feBlend mode="normal" in="SourceGraphic" in2="BackgroundImageFix" result="shape"/>
<feColorMatrix in="SourceAlpha" type="matrix" values="0 0 0 0 0 0 0 0 0 0 0 0 0 0 0 0 0 0 127 0" result="hardAlpha"/>
<feOffset dx="0.25"/>
<feGaussianBlur stdDeviation="0.125"/>
<feComposite in2="hardAlpha" operator="arithmetic" k2="-1" k3="1"/>
<feColorMatrix type="matrix" values="0 0 0 0 0.192157 0 0 0 0 0.376471 0 0 0 0 0.721569 0 0 0 1 0"/>
<feBlend mode="normal" in2="shape" result="effect1_innerShadow_959_7898"/>
<feColorMatrix in="SourceAlpha" type="matrix" values="0 0 0 0 0 0 0 0 0 0 0 0 0 0 0 0 0 0 127 0" result="hardAlpha"/>
<feOffset dy="-0.25"/>
<feGaussianBlur stdDeviation="0.125"/>
<feComposite in2="hardAlpha" operator="arithmetic" k2="-1" k3="1"/>
<feColorMatrix type="matrix" values="0 0 0 0 0.32549 0 0 0 0 0.341176 0 0 0 0 0.819608 0 0 0 1 0"/>
<feBlend mode="normal" in2="effect1_innerShadow_959_7898" result="effect2_innerShadow_959_7898"/>
<feColorMatrix in="SourceAlpha" type="matrix" values="0 0 0 0 0 0 0 0 0 0 0 0 0 0 0 0 0 0 127 0" result="hardAlpha"/>
<feOffset dx="-0.15" dy="0.25"/>
<feGaussianBlur stdDeviation="0.125"/>
<feComposite in2="hardAlpha" operator="arithmetic" k2="-1" k3="1"/>
<feColorMatrix type="matrix" values="0 0 0 0 0.317647 0 0 0 0 0.596078 0 0 0 0 0.882353 0 0 0 1 0"/>
<feBlend mode="normal" in2="effect2_innerShadow_959_7898" result="effect3_innerShadow_959_7898"/>
</filter>
<filter id="filter4_dii_959_7898" x="6.72061" y="6.93707" width="6.125" height="6.27537" filterUnits="userSpaceOnUse" color-interpolation-filters="sRGB">
<feFlood flood-opacity="0" result="BackgroundImageFix"/>
<feColorMatrix in="SourceAlpha" type="matrix" values="0 0 0 0 0 0 0 0 0 0 0 0 0 0 0 0 0 0 127 0" result="hardAlpha"/>
<feOffset dx="-0.15" dy="0.15"/>
<feGaussianBlur stdDeviation="0.125"/>
<feComposite in2="hardAlpha" operator="out"/>
<feColorMatrix type="matrix" values="0 0 0 0 0.152941 0 0 0 0 0.341176 0 0 0 0 0.768627 0 0 0 1 0"/>
<feBlend mode="normal" in2="BackgroundImageFix" result="effect1_dropShadow_959_7898"/>
<feBlend mode="normal" in="SourceGraphic" in2="effect1_dropShadow_959_7898" result="shape"/>
<feColorMatrix in="SourceAlpha" type="matrix" values="0 0 0 0 0 0 0 0 0 0 0 0 0 0 0 0 0 0 127 0" result="hardAlpha"/>
<feOffset dy="-0.25"/>
<feGaussianBlur stdDeviation="0.2"/>
<feComposite in2="hardAlpha" operator="arithmetic" k2="-1" k3="1"/>
<feColorMatrix type="matrix" values="0 0 0 0 0.803922 0 0 0 0 0.713726 0 0 0 0 0.921569 0 0 0 1 0"/>
<feBlend mode="normal" in2="shape" result="effect2_innerShadow_959_7898"/>
<feColorMatrix in="SourceAlpha" type="matrix" values="0 0 0 0 0 0 0 0 0 0 0 0 0 0 0 0 0 0 127 0" result="hardAlpha"/>
<feOffset dx="-0.15" dy="0.15"/>
<feGaussianBlur stdDeviation="0.15"/>
<feComposite in2="hardAlpha" operator="arithmetic" k2="-1" k3="1"/>
<feColorMatrix type="matrix" values="0 0 0 0 0.917647 0 0 0 0 0.890196 0 0 0 0 0.952941 0 0 0 1 0"/>
<feBlend mode="normal" in2="effect2_innerShadow_959_7898" result="effect3_innerShadow_959_7898"/>
</filter>
<linearGradient id="paint0_linear_959_7898" x1="2.55908" y1="10.7228" x2="18.6916" y2="10.606" gradientUnits="userSpaceOnUse">
<stop stop-color="#757575"/>
<stop offset="1" stop-color="#EEE5F8"/>
</linearGradient>
<linearGradient id="paint1_linear_959_7898" x1="1.30908" y1="10.6847" x2="3.20783" y2="10.6847" gradientUnits="userSpaceOnUse">
<stop stop-color="#757575"/>
<stop offset="1" stop-color="#DCC9DD" stop-opacity="0"/>
</linearGradient>
<linearGradient id="paint2_linear_959_7898" x1="6.77346" y1="11.8581" x2="6.29721" y2="11.1162" gradientUnits="userSpaceOnUse">
<stop offset="0.114" stop-color="#757575"/>
<stop offset="1" stop-color="#DAC3DF" stop-opacity="0"/>
</linearGradient>
<radialGradient id="paint3_radial_959_7898" cx="0" cy="0" r="1" gradientUnits="userSpaceOnUse" gradientTransform="translate(7.57708 8.36253) rotate(123.69) scale(1.70327 11.9622)">
<stop offset="0.359" stop-color="#757575"/>
<stop offset="1" stop-color="#7F628F" stop-opacity="0"/>
</radialGradient>
<linearGradient id="paint4_linear_959_7898" x1="13.1837" y1="12.0506" x2="13.7025" y2="11.1162" gradientUnits="userSpaceOnUse">
<stop offset="0.114" stop-color="#F6EFFE"/>
<stop offset="1" stop-color="#F3EAFD" stop-opacity="0"/>
</linearGradient>
<linearGradient id="paint5_linear_959_7898" x1="12.5975" y1="8.71124" x2="13.2619" y2="9.60936" gradientUnits="userSpaceOnUse">
<stop stop-color="#757575"/>
<stop offset="1" stop-color="#757575"/>
</linearGradient>
<linearGradient id="paint6_linear_959_7898" x1="18.8087" y1="12.2269" x2="16.4844" y2="12.2269" gradientUnits="userSpaceOnUse">
<stop stop-color="#F7F3FB"/>
<stop offset="1" stop-color="#F0E9F8" stop-opacity="0"/>
</linearGradient>
<linearGradient id="paint7_linear_959_7898" x1="18.8087" y1="12.2269" x2="18.0425" y2="12.2269" gradientUnits="userSpaceOnUse">
<stop offset="0.199" stop-color="#EBE9ED"/>
<stop offset="1" stop-color="#EBE9ED" stop-opacity="0"/>
</linearGradient>
<linearGradient id="paint8_linear_959_7898" x1="9.99998" y1="17.3243" x2="9.99998" y2="10.5662" gradientUnits="userSpaceOnUse">
<stop stop-color="#757575"/>
<stop offset="1" stop-color="#757575"/>
</linearGradient>
<linearGradient id="paint9_linear_959_7898" x1="4.67873" y1="12.5662" x2="4.96373" y2="12.9943" gradientUnits="userSpaceOnUse">
<stop offset="0.073" stop-color="#DDC2C8"/>
<stop offset="1" stop-color="#DFCDDA" stop-opacity="0"/>
</linearGradient>
<linearGradient id="paint10_linear_959_7898" x1="14.1131" y1="11.9743" x2="13.9337" y2="12.2537" gradientUnits="userSpaceOnUse">
<stop offset="0.14" stop-color="#F8F3FD"/>
<stop offset="1" stop-color="#F1EAF9" stop-opacity="0"/>
</linearGradient>
<linearGradient id="paint11_linear_959_7898" x1="9.99998" y1="3.76971" x2="9.99998" y2="10.5122" gradientUnits="userSpaceOnUse">
<stop stop-color="#E9E4E9"/>
<stop offset="1" stop-color="#E7DCF0"/>
</linearGradient>
<linearGradient id="paint12_linear_959_7898" x1="6.13123" y1="8.04909" x2="8.38998" y2="3.99596" gradientUnits="userSpaceOnUse">
<stop stop-color="#757575"/>
<stop offset="1" stop-color="#E1D5E7" stop-opacity="0"/>
</linearGradient>
<linearGradient id="paint13_linear_959_7898" x1="1.30873" y1="4.79346" x2="3.14123" y2="4.79346" gradientUnits="userSpaceOnUse">
<stop stop-color="#757575"/>
<stop offset="1" stop-color="#757575"/>
</linearGradient>
<radialGradient id="paint14_radial_959_7898" cx="0" cy="0" r="1" gradientUnits="userSpaceOnUse" gradientTransform="translate(17.1608 6.32149) rotate(-138.233) scale(3.83066 16.9737)">
<stop stop-color="#757575"/>
<stop offset="1" stop-color="#F0ECF1" stop-opacity="0"/>
</radialGradient>
<linearGradient id="paint15_linear_959_7898" x1="14.0238" y1="8.92562" x2="6.68008" y2="11.6212" gradientUnits="userSpaceOnUse">
<stop offset="0.00399963" stop-color="#86A6CF"/>
<stop offset="1" stop-color="#3477CB"/>
</linearGradient>
</defs>
</svg>
