<svg width="14" height="14" viewBox="0 0 14 14" fill="none" xmlns="http://www.w3.org/2000/svg">
<path d="M11.0833 4.08398H2.91667C2.60725 4.08398 2.3105 4.2069 2.09171 4.42569C1.87292 4.64449 1.75 4.94123 1.75 5.25065V10.5007C1.75 10.8101 1.87292 11.1068 2.09171 11.3256C2.3105 11.5444 2.60725 11.6673 2.91667 11.6673H11.0833C11.3928 11.6673 11.6895 11.5444 11.9083 11.3256C12.1271 11.1068 12.25 10.8101 12.25 10.5007V5.25065C12.25 4.94123 12.1271 4.64449 11.9083 4.42569C11.6895 4.2069 11.3928 4.08398 11.0833 4.08398ZM5.43433 8.35165L6.36883 9.16832C6.54675 9.32348 6.77192 9.40048 7 9.40048C7.22808 9.40048 7.45325 9.3229 7.63117 9.16832L8.56567 8.35165L8.54408 8.37323L10.6709 10.5001H3.32908L5.45592 8.37323L5.43433 8.35165ZM2.91667 10.0882V6.14898L5.01783 7.98707L2.91667 10.0882ZM8.98217 7.98707L11.0833 6.14898V10.0865L8.98217 7.98707ZM11.0833 5.25065V5.37315L7.24733 8.72965C7.17707 8.78569 7.08987 8.8162 7 8.8162C6.91013 8.8162 6.82293 8.78569 6.75267 8.72965L2.91667 5.37315V5.25065H11.0833Z" fill="white"/>
</svg>
