<svg width="20" height="20" viewBox="0 0 20 20" fill="none" xmlns="http://www.w3.org/2000/svg">
<path d="M7.32775 6.45989V7.41753H6.66797V8.58798H7.32775V12.0673H8.68397V8.58798H9.59379C9.59379 8.58798 9.67953 8.02675 9.72077 7.41266H8.6892V6.61289C8.6892 6.49257 8.83713 6.33192 8.98375 6.33192H9.72208V5.11279H8.71735C7.29437 5.11279 7.32775 6.28463 7.32775 6.45989Z" fill="#014579"/>
<path d="M8.18217 14.1547C9.57094 14.1547 10.9028 13.5685 11.8848 12.5251C12.8668 11.4817 13.4185 10.0666 13.4185 8.59102C13.4185 7.11545 12.8668 5.70032 11.8848 4.65694C10.9028 3.61355 9.57094 3.02738 8.18217 3.02738C6.7934 3.02738 5.46151 3.61355 4.47951 4.65694C3.4975 5.70032 2.94581 7.11545 2.94581 8.59102C2.94581 10.0666 3.4975 11.4817 4.47951 12.5251C5.46151 13.5685 6.7934 14.1547 8.18217 14.1547ZM8.18217 15.5456C4.56712 15.5456 1.63672 12.432 1.63672 8.59102C1.63672 4.75002 4.56712 1.63647 8.18217 1.63647C11.7972 1.63647 14.7276 4.75002 14.7276 8.59102C14.7276 12.432 11.7972 15.5456 8.18217 15.5456Z" fill="#014579"/>
</svg>
