<svg width="42" height="42" viewBox="0 0 42 42" fill="none" xmlns="http://www.w3.org/2000/svg">
<path fill-rule="evenodd" clip-rule="evenodd" d="M16.6495 5.25024C17.0271 5.25548 17.3929 5.38273 17.6922 5.61297C17.9915 5.84322 18.2083 6.16412 18.3103 6.52774L24.738 29.3827L28.112 20.386C28.237 20.0525 28.4608 19.7651 28.7535 19.5621C29.0462 19.3592 29.3938 19.2504 29.75 19.2502H35C35.4641 19.2502 35.9093 19.4346 36.2374 19.7628C36.5656 20.091 36.75 20.5361 36.75 21.0002C36.75 21.4644 36.5656 21.9095 36.2374 22.2377C35.9093 22.5659 35.4641 22.7502 35 22.7502H30.9628L26.138 35.6145C26.0086 35.9599 25.7733 36.2556 25.4657 36.4593C25.1582 36.663 24.7942 36.7643 24.4256 36.7488C24.0571 36.7333 23.7029 36.6017 23.4136 36.3728C23.1243 36.144 22.9147 35.8296 22.8147 35.4745L16.5375 13.1497L13.9195 21.5217C13.8084 21.8776 13.5865 22.1888 13.2862 22.4098C12.9859 22.6307 12.6229 22.75 12.25 22.7502H7C6.53587 22.7502 6.09075 22.5659 5.76256 22.2377C5.43437 21.9095 5.25 21.4644 5.25 21.0002C5.25 20.5361 5.43437 20.091 5.76256 19.7628C6.09075 19.4346 6.53587 19.2502 7 19.2502H10.9637L14.9538 6.47874C15.0663 6.11792 15.2927 5.80326 15.599 5.58181C15.9053 5.36037 16.2751 5.24404 16.653 5.25024H16.6495Z" fill="#D97706"/>
</svg>
