<svg width="42" height="42" viewBox="0 0 42 42" fill="none" xmlns="http://www.w3.org/2000/svg">
<path d="M20.9995 3.5C24.4607 3.5 27.8441 4.52636 30.722 6.44928C33.5998 8.37221 35.8429 11.1053 37.1674 14.303C38.4919 17.5007 38.8385 21.0194 38.1632 24.4141C37.488 27.8087 35.8213 30.9269 33.3739 33.3744C30.9265 35.8218 27.8083 37.4885 24.4136 38.1637C21.0189 38.839 17.5002 38.4924 14.3025 37.1679C11.1048 35.8434 8.37171 33.6003 6.44879 30.7225C4.52586 27.8446 3.4995 24.4612 3.4995 21C3.50467 16.3603 5.35007 11.9121 8.63083 8.63133C11.9116 5.35056 16.3598 3.50516 20.9995 3.5ZM20.9995 35C23.7684 35 26.4752 34.1789 28.7775 32.6406C31.0798 31.1022 32.8742 28.9157 33.9338 26.3576C34.9934 23.7994 35.2707 20.9845 34.7305 18.2687C34.1903 15.553 32.8569 13.0584 30.899 11.1005C28.9411 9.14257 26.4465 7.8092 23.7308 7.26901C21.015 6.72881 18.2001 7.00606 15.6419 8.06569C13.0838 9.12531 10.8973 10.9197 9.35893 13.222C7.82059 15.5243 6.9995 18.2311 6.9995 21C7.00375 24.7117 8.48011 28.2702 11.1047 30.8948C13.7293 33.5194 17.2878 34.9958 20.9995 35ZM20.9995 20.125C21.4636 20.125 21.9088 20.3094 22.2369 20.6376C22.5651 20.9658 22.7495 21.4109 22.7495 21.875V27.125C22.7495 27.5891 22.5651 28.0342 22.2369 28.3624C21.9088 28.6906 21.4636 28.875 20.9995 28.875C20.5354 28.875 20.0903 28.6906 19.7621 28.3624C19.4339 28.0342 19.2495 27.5891 19.2495 27.125V21.875C19.2495 21.4109 19.4339 20.9658 19.7621 20.6376C20.0903 20.3094 20.5354 20.125 20.9995 20.125ZM20.9995 13.125C21.4321 13.125 21.8551 13.2533 22.2148 13.4937C22.5745 13.734 22.8549 14.0757 23.0205 14.4754C23.1861 14.8751 23.2294 15.3149 23.145 15.7393C23.0606 16.1636 22.8522 16.5534 22.5463 16.8593C22.2404 17.1652 21.8506 17.3736 21.4263 17.458C21.0019 17.5424 20.5621 17.4991 20.1624 17.3335C19.7627 17.1679 19.421 16.8875 19.1807 16.5278C18.9403 16.1681 18.812 15.7451 18.812 15.3125C18.812 14.7323 19.0425 14.1759 19.4527 13.7657C19.8629 13.3555 20.4193 13.125 20.9995 13.125Z" fill="#D97706"/>
</svg>
