<svg width="20" height="20" viewBox="0 0 20 20" fill="none" xmlns="http://www.w3.org/2000/svg">
<path d="M2.45312 7.54574C2.45312 5.14602 2.45312 3.94583 3.19894 3.20065C3.94476 2.45547 5.14431 2.45483 7.54403 2.45483H8.81676C11.2165 2.45483 12.4167 2.45483 13.1619 3.20065C13.907 3.94647 13.9077 5.14602 13.9077 7.54574V8.81847C13.9077 11.2182 13.9077 12.4184 13.1619 13.1636C12.416 13.9087 11.2165 13.9094 8.81676 13.9094H7.54403C5.14431 13.9094 3.94412 13.9094 3.19894 13.1636C2.45376 12.4177 2.45312 11.2182 2.45312 8.81847V7.54574Z" stroke="#014579" stroke-width="1.63636"/>
<path d="M11.0444 6.27262C11.5716 6.27262 11.9989 5.84525 11.9989 5.31807C11.9989 4.79089 11.5716 4.36353 11.0444 4.36353C10.5172 4.36353 10.0898 4.79089 10.0898 5.31807C10.0898 5.84525 10.5172 6.27262 11.0444 6.27262Z" fill="#014579"/>
<path d="M8.17862 10.0936C9.23298 10.0936 10.0877 9.23884 10.0877 8.18448C10.0877 7.13012 9.23298 6.27539 8.17862 6.27539C7.12426 6.27539 6.26953 7.13012 6.26953 8.18448C6.26953 9.23884 7.12426 10.0936 8.17862 10.0936Z" stroke="#014579" stroke-width="1.63636"/>
</svg>
