<svg width="14" height="14" viewBox="0 0 14 14" fill="none" xmlns="http://www.w3.org/2000/svg">
<path d="M9.91797 4.95801C10.4012 4.95801 10.793 4.56626 10.793 4.08301C10.793 3.59976 10.4012 3.20801 9.91797 3.20801C9.43472 3.20801 9.04297 3.59976 9.04297 4.08301C9.04297 4.56626 9.43472 4.95801 9.91797 4.95801Z" fill="white"/>
<path d="M9.33333 1.75C10.9433 1.75 12.25 3.05667 12.25 4.66667V9.33333C12.25 10.9433 10.9433 12.25 9.33333 12.25H4.66667C3.05667 12.25 1.75 10.9433 1.75 9.33333V4.66667C1.75 3.05667 3.05667 1.75 4.66667 1.75H7H9.33333Z" stroke="white" stroke-width="2" stroke-linecap="round" stroke-linejoin="round"/>
<path d="M7.0013 4.66699C8.29047 4.66699 9.33464 5.71116 9.33464 7.00033C9.33464 8.28949 8.29047 9.33366 7.0013 9.33366C5.71214 9.33366 4.66797 8.28949 4.66797 7.00033C4.66797 5.71116 5.71214 4.66699 7.0013 4.66699Z" stroke="white" stroke-width="2" stroke-linecap="round" stroke-linejoin="round"/>
</svg>
