<svg width="42" height="42" viewBox="0 0 42 42" fill="none" xmlns="http://www.w3.org/2000/svg">
<path fill-rule="evenodd" clip-rule="evenodd" d="M25.0957 1.85461C25.7885 2.10544 26.25 2.7633 26.25 3.50009V15.7501H35C35.679 15.7501 36.2968 16.1429 36.5848 16.7578C36.8729 17.3727 36.7791 18.0989 36.3444 18.6203L18.8444 39.6203C18.3727 40.1865 17.5971 40.3963 16.9043 40.1455C16.2115 39.8947 15.75 39.2369 15.75 38.5002V26.2502H7.00002C6.32098 26.2502 5.70325 25.8573 5.41524 25.2423C5.12722 24.6274 5.22094 23.9015 5.65564 23.3798L23.1557 2.37977C23.6273 1.81375 24.4031 1.60379 25.0957 1.85461ZM10.7363 22.7502H17.5C18.4665 22.7502 19.25 23.5337 19.25 24.5002V33.6665L31.2638 19.2502H24.5C23.5335 19.2502 22.75 18.4665 22.75 17.5002V8.33367L10.7363 22.7502Z" fill="url(#paint0_linear_971_16130)"/>
<defs>
<linearGradient id="paint0_linear_971_16130" x1="5.62315" y1="40.2502" x2="75.458" y2="25.6095" gradientUnits="userSpaceOnUse">
<stop offset="0.0814986" stop-color="#014579"/>
<stop offset="0.337366" stop-color="#095A6E"/>
<stop offset="0.840276" stop-color="#32CD32"/>
</linearGradient>
</defs>
</svg>
