<svg width="20" height="20" viewBox="0 0 20 20" fill="none" xmlns="http://www.w3.org/2000/svg">
<path d="M13.3622 2.45483C13.9409 2.45483 14.4958 2.70333 14.905 3.14565C15.3142 3.58797 15.544 4.18788 15.544 4.81342V14.2478C15.544 14.8733 15.3142 15.4732 14.905 15.9155C14.4958 16.3579 13.9409 16.6064 13.3622 16.6064H4.63494C4.05629 16.6064 3.50134 16.3579 3.09216 15.9155C2.68299 15.4732 2.45313 14.8733 2.45312 14.2478V4.81342C2.45313 4.18788 2.68299 3.58797 3.09216 3.14565C3.50134 2.70333 4.05629 2.45483 4.63494 2.45483H13.3622ZM13.3622 4.02723H4.63494C4.44206 4.02723 4.25707 4.11006 4.12068 4.2575C3.98429 4.40494 3.90767 4.60491 3.90767 4.81342V14.2478C3.90767 14.4563 3.98429 14.6563 4.12068 14.8037C4.25707 14.9511 4.44206 15.034 4.63494 15.034H13.3622C13.5551 15.034 13.7401 14.9511 13.8765 14.8037C14.0129 14.6563 14.0895 14.4563 14.0895 14.2478V4.81342C14.0895 4.60491 14.0129 4.40494 13.8765 4.2575C13.7401 4.11006 13.5551 4.02723 13.3622 4.02723ZM6.08949 7.9582C6.26762 7.95823 6.43955 8.02893 6.57267 8.15689C6.70578 8.28485 6.79083 8.46117 6.81167 8.65241L6.81676 8.7444V12.6754C6.81656 12.8758 6.74558 13.0685 6.61833 13.2142C6.49108 13.3599 6.31716 13.4476 6.13211 13.4593C5.94706 13.4711 5.76485 13.406 5.6227 13.2774C5.48055 13.1488 5.3892 12.9663 5.36731 12.7674L5.36222 12.6754V8.7444C5.36222 8.53589 5.43884 8.33591 5.57523 8.18847C5.71162 8.04103 5.8966 7.9582 6.08949 7.9582ZM8.27131 7.17201C8.44163 7.17198 8.60656 7.23658 8.73734 7.35453C8.86812 7.47249 8.95646 7.63632 8.98694 7.81747C9.13343 7.72602 9.28472 7.64386 9.44003 7.57139C9.92513 7.34733 10.6517 7.2239 11.3077 7.44639C11.6517 7.56432 11.9971 7.78445 12.2531 8.15947C12.4822 8.4936 12.6059 8.90006 12.6306 9.35684L12.6349 9.53059V12.6754C12.6347 12.8758 12.5638 13.0685 12.4365 13.2142C12.3093 13.3599 12.1353 13.4476 11.9503 13.4593C11.7652 13.4711 11.583 13.406 11.4409 13.2774C11.2987 13.1488 11.2074 12.9663 11.1855 12.7674L11.1804 12.6754V9.53059C11.1804 9.27115 11.1222 9.15007 11.0844 9.09425C11.03 9.02134 10.9553 8.96948 10.8713 8.94645C10.6182 8.85997 10.2539 8.90557 10.0117 9.01721C9.64803 9.18545 9.31494 9.44962 9.08803 9.69412L8.99858 9.7979V12.6754C8.99837 12.8758 8.92739 13.0685 8.80014 13.2142C8.67289 13.3599 8.49898 13.4476 8.31393 13.4593C8.12888 13.4711 7.94667 13.406 7.80452 13.2774C7.66237 13.1488 7.57102 12.9663 7.54913 12.7674L7.54403 12.6754V7.9582C7.54403 7.74969 7.62066 7.54972 7.75705 7.40228C7.89344 7.25484 8.07842 7.17201 8.27131 7.17201ZM6.08949 5.59962C6.28237 5.59962 6.46736 5.68245 6.60375 5.82989C6.74014 5.97733 6.81676 6.1773 6.81676 6.38581C6.81676 6.59432 6.74014 6.7943 6.60375 6.94174C6.46736 7.08918 6.28237 7.17201 6.08949 7.17201C5.8966 7.17201 5.71162 7.08918 5.57523 6.94174C5.43884 6.7943 5.36222 6.59432 5.36222 6.38581C5.36222 6.1773 5.43884 5.97733 5.57523 5.82989C5.71162 5.68245 5.8966 5.59962 6.08949 5.59962Z" fill="#014579"/>
</svg>
