<svg width="15" height="18" viewBox="0 0 15 18" fill="none" xmlns="http://www.w3.org/2000/svg">
<path d="M7.22754 0.75C8.95595 0.752034 10.6063 1.40827 11.8184 2.56445C12.9537 3.64769 13.6182 5.08591 13.6982 6.59473L13.7061 6.89746C13.7073 8.21754 13.2551 9.50606 12.4131 10.5654L12.334 10.665L12.333 10.666C12.3265 10.6742 12.3202 10.683 12.3135 10.6914C12.2872 10.724 12.2599 10.7567 12.2383 10.7832C12.2191 10.8069 12.2094 10.8183 12.207 10.8213L7.22754 16.4238L2.24609 10.8193L2.24219 10.8154L2.14355 10.6924C2.11753 10.66 2.09195 10.6289 2.07324 10.6055C2.0639 10.5938 2.05612 10.5838 2.05078 10.5771C2.04815 10.5738 2.04631 10.5711 2.04492 10.5693C2.04423 10.5685 2.04332 10.5678 2.04297 10.5674L2.04199 10.5664C1.19983 9.5068 0.748544 8.21782 0.75 6.89746C0.752001 5.27941 1.42671 3.71984 2.6377 2.56445C3.84952 1.40848 5.49948 0.752283 7.22754 0.75ZM8.50977 3.88184C7.89682 3.6396 7.22375 3.57711 6.5752 3.7002C5.92664 3.82334 5.32604 4.12739 4.85156 4.58008C4.37664 5.0332 4.04919 5.61515 3.91602 6.25391C3.78282 6.89283 3.85113 7.5548 4.11133 8.1543C4.37137 8.75328 4.80964 9.2596 5.36426 9.61328C5.84954 9.92265 6.4071 10.105 6.98145 10.1455L7.22852 10.1543C8.11287 10.1532 8.96795 9.81732 9.60352 9.21094C10.2401 8.60352 10.6052 7.77233 10.6064 6.89746V6.89648C10.6064 6.24411 10.403 5.60871 10.0273 5.07227C9.65205 4.5366 9.12266 4.1241 8.50977 3.88184Z" stroke="#014579" stroke-width="1.5"/>
</svg>
