<svg width="13" height="16" viewBox="0 0 13 16" fill="none" xmlns="http://www.w3.org/2000/svg">
<path d="M6.5 0.75C8.03231 0.751967 9.49614 1.34216 10.5723 2.38281C11.5805 3.35783 12.1718 4.65288 12.2432 6.01367L12.25 6.28711C12.2511 7.47765 11.8487 8.63887 11.1006 9.59277L11.0459 9.66113C11.0347 9.6753 11.0231 9.69144 11.0107 9.70703C10.9872 9.73669 10.9636 9.76696 10.9443 9.79102C10.934 9.80389 10.9273 9.81292 10.9229 9.81836L6.5 14.8623L2.08008 9.82129L2.07617 9.81738L1.98926 9.70801C1.96598 9.67863 1.9435 9.65015 1.92676 9.62891C1.91837 9.61826 1.91104 9.60961 1.90625 9.60352C1.90405 9.60072 1.90261 9.59826 1.90137 9.59668C1.90075 9.59589 1.89973 9.59512 1.89941 9.59473V9.59375C1.15099 8.63953 0.748732 7.47811 0.75 6.28711C0.751781 4.82752 1.3523 3.42283 2.42773 2.38281C3.50386 1.34216 4.96769 0.751967 6.5 0.75ZM7.68359 3.47754C7.11783 3.25092 6.49651 3.19243 5.89746 3.30762C5.29843 3.42284 4.74453 3.70753 4.30762 4.12988C3.87043 4.55266 3.56942 5.09484 3.44727 5.68848C3.3251 6.28239 3.38803 6.89826 3.62695 7.45605C3.86576 8.01341 4.26883 8.48593 4.78027 8.81641C5.29146 9.14659 5.88985 9.32129 6.5 9.32129H6.50098C7.31809 9.32028 8.10615 9.00623 8.69141 8.44043C9.27745 7.8737 9.61212 7.09977 9.61328 6.28711V6.28613C9.61328 5.68006 9.42731 5.08959 9.08203 4.58984C8.73695 4.09042 8.24957 3.70427 7.68359 3.47754Z" stroke="#E0E0E0" stroke-width="1.5"/>
</svg>
