<svg width="52" height="52" viewBox="0 0 52 52" fill="none" xmlns="http://www.w3.org/2000/svg">
<g filter="url(#filter0_d_762_20025)">
<path d="M26 47C38.1503 47 48 37.1503 48 25C48 12.8497 38.1503 3 26 3C13.8497 3 4 12.8497 4 25C4 37.1503 13.8497 47 26 47Z" fill="url(#paint0_linear_762_20025)" fill-opacity="0.28" shape-rendering="crispEdges"/>
</g>
<g clip-path="url(#clip0_762_20025)">
<path d="M22.6556 17.4653C23.0673 17.4653 23.4749 17.5464 23.8552 17.7039C24.2355 17.8615 24.581 18.0923 24.8721 18.3834C25.1631 18.6745 25.394 19.02 25.5515 19.4003C25.709 19.7806 25.7901 20.1882 25.7901 20.5998V29.1208C25.7889 29.6039 25.6902 30.0816 25.4998 30.5256C25.3095 30.9695 25.0315 31.3704 24.6824 31.7043C24.3334 32.0381 23.9205 32.2981 23.4686 32.4685C23.0166 32.639 22.5349 32.7164 22.0524 32.6962C21.5698 32.676 21.0962 32.5585 20.6601 32.3508C20.2241 32.1431 19.8344 31.8496 19.5145 31.4876C19.1947 31.1257 18.9512 30.703 18.7986 30.2447C18.6461 29.7864 18.5877 29.302 18.6269 28.8206C17.8802 28.0172 17.4087 26.45 17.4087 25.1395C17.4087 23.3563 18.2845 21.6218 19.5383 20.9396C19.4905 20.5018 19.5356 20.0588 19.6705 19.6396C19.8054 19.2204 20.0272 18.8343 20.3213 18.5065C20.6154 18.1787 20.9753 17.9165 21.3775 17.7372C21.7797 17.5578 22.2152 17.4651 22.6556 17.4653Z" stroke="#014579" stroke-linecap="round" stroke-linejoin="round"/>
<path d="M21.1953 23.0705C20.7344 22.9652 19.6926 22.2816 19.5359 20.9488M23.1168 26.5882C24.9975 26.3775 25.7416 24.3941 25.7903 23.5868M19.5872 26.9399C19.1184 27.3086 18.7444 28.1476 18.6245 28.8192M28.9248 17.4653C28.0935 17.4653 27.2962 17.7956 26.7084 18.3834C26.1206 18.9712 25.7903 19.7685 25.7903 20.5998V29.1208C25.7916 29.6039 25.8903 30.0816 26.0806 30.5256C26.271 30.9695 26.549 31.3704 26.898 31.7043C27.2471 32.0381 27.66 32.2981 28.1119 32.4685C28.5638 32.639 29.0455 32.7164 29.5281 32.6962C30.0107 32.676 30.4842 32.5585 30.9203 32.3508C31.3564 32.1431 31.7461 31.8496 32.0659 31.4876C32.3858 31.1257 32.6293 30.703 32.7818 30.2447C32.9344 29.7864 32.9928 29.302 32.9535 28.8206C33.7003 28.0172 34.1705 26.45 34.1705 25.1395C34.1705 23.3563 33.296 21.6231 32.0422 20.9396C32.0536 20.829 32.0593 20.7157 32.0593 20.5998C32.0593 20.1882 31.9782 19.7806 31.8207 19.4003C31.6632 19.02 31.4323 18.6745 31.1412 18.3834C30.8502 18.0923 30.5046 17.8615 30.1243 17.7039C29.744 17.5464 29.3364 17.4653 28.9248 17.4653Z" stroke="#014579" stroke-linecap="round" stroke-linejoin="round"/>
<path d="M30.3851 23.0704C30.846 22.9651 31.8878 22.2815 32.0445 20.9487M28.4636 26.5882C26.5829 26.3774 25.8388 24.394 25.79 23.5867M31.9931 26.9398C32.462 27.3086 32.836 28.1475 32.9559 28.8192" stroke="#014579" stroke-linecap="round" stroke-linejoin="round"/>
</g>
<defs>
<filter id="filter0_d_762_20025" x="0" y="0" width="52" height="52" filterUnits="userSpaceOnUse" color-interpolation-filters="sRGB">
<feFlood flood-opacity="0" result="BackgroundImageFix"/>
<feColorMatrix in="SourceAlpha" type="matrix" values="0 0 0 0 0 0 0 0 0 0 0 0 0 0 0 0 0 0 127 0" result="hardAlpha"/>
<feOffset dy="1"/>
<feGaussianBlur stdDeviation="2"/>
<feComposite in2="hardAlpha" operator="out"/>
<feColorMatrix type="matrix" values="0 0 0 0 0 0 0 0 0 0 0 0 0 0 0 0 0 0 0.25 0"/>
<feBlend mode="normal" in2="BackgroundImageFix" result="effect1_dropShadow_762_20025"/>
<feBlend mode="normal" in="SourceGraphic" in2="effect1_dropShadow_762_20025" result="shape"/>
</filter>
<linearGradient id="paint0_linear_762_20025" x1="26" y1="3" x2="26" y2="47" gradientUnits="userSpaceOnUse">
<stop stop-color="#698AF8"/>
<stop offset="1" stop-color="#5EDB9A"/>
</linearGradient>
<clipPath id="clip0_762_20025">
<rect width="18.4381" height="18.4381" fill="white" transform="translate(16.5713 15.5713)"/>
</clipPath>
</defs>
</svg>
