<svg width="21" height="21" viewBox="0 0 21 21" fill="none" xmlns="http://www.w3.org/2000/svg">
<path d="M7.71605 2.28516C8.12772 2.34952 9.19515 6.31195 9.13079 6.72362C9.00207 7.54695 7.63836 8.1772 7.09797 8.93618C6.55759 9.69515 7.2522 10.6472 7.94681 11.5992C8.21771 11.9706 9.33604 13.5034 10.2237 13.2204C11.1114 12.9375 12.1278 11.8312 12.9512 11.9599C13.3628 12.0243 16.8104 14.2501 16.746 14.6618C16.4886 16.3085 15.0605 17.3504 13.7612 17.569C12.4618 17.7876 11.6385 17.6589 10.0562 16.9898C8.47386 16.3207 7.30322 15.7159 5.56669 13.3358C3.83015 10.9557 3.61156 9.6563 3.45734 7.94528C3.30311 6.23425 3.43182 5.41092 4.03657 4.24028C4.64131 3.06964 6.06939 2.02772 7.71605 2.28516Z" fill="white" stroke="white" stroke-width="2" stroke-linecap="round" stroke-linejoin="round"/>
</svg>
