<svg width="14" height="14" viewBox="0 0 14 14" fill="none" xmlns="http://www.w3.org/2000/svg">
<path d="M3.06445 2.07129C3.17871 2.08825 3.28944 2.12458 3.39062 2.18066C3.50183 2.2423 3.59972 2.32615 3.67871 2.42578L3.68945 2.43945L3.70215 2.45312C3.84405 2.60745 3.99952 2.76269 4.14746 2.90918C4.29854 3.05877 4.44061 3.1987 4.56836 3.33203L4.57324 3.33691L4.5791 3.3418L4.94629 3.7041L4.96582 3.72168C5.07958 3.82268 5.15013 3.96237 5.16797 4.11426C5.16323 4.24805 5.11363 4.37684 5.02344 4.47852L5.01758 4.48633L5.01172 4.49316C4.96024 4.55568 4.90708 4.61693 4.85254 4.67676L4.68359 4.85254L4.67383 4.8623L4.56445 4.97852C4.44405 5.09433 4.35234 5.23484 4.29492 5.38965H4.29395L4.29004 5.40234C4.23937 5.5513 4.21951 5.70762 4.22949 5.8623L4.23438 5.93555L4.25977 6.00488C4.37235 6.30628 4.5477 6.57961 4.76953 6.81152C5.07001 7.21754 5.37725 7.58346 5.66406 7.94336L5.66992 7.9502L5.67676 7.95801C6.25957 8.63454 6.95167 9.20938 7.72363 9.6582V9.65723C7.8495 9.74042 7.98996 9.79831 8.13867 9.82422L8.16211 9.82812L8.18652 9.83008C8.33852 9.84142 8.4943 9.81938 8.63965 9.76172L8.67578 9.74707L8.70898 9.72754C8.9658 9.57633 9.19342 9.38216 9.38379 9.1543L9.38672 9.15039C9.50492 9.00586 9.67208 8.91148 9.85547 8.88086C10.0242 8.8914 10.1839 8.96266 10.3027 9.08398L10.3184 9.10059L10.3359 9.11523C10.4299 9.19488 10.5411 9.30941 10.6719 9.44629L10.6738 9.44922L10.8516 9.63184L10.8564 9.6377L10.8623 9.64355L11.0371 9.8125V9.81348L11.3516 10.1328L11.377 10.1562C11.541 10.302 11.695 10.4575 11.8389 10.6221C11.9192 10.7393 11.9562 10.8803 11.9463 11.0215C11.8938 11.2294 11.7779 11.4159 11.6113 11.5518L11.5898 11.5693L11.5713 11.5879C11.3329 11.8296 11.0486 12.0223 10.7354 12.1533C10.4223 12.2842 10.0864 12.3514 9.74707 12.3516H9.57129C8.79051 12.3079 8.02574 12.1093 7.32227 11.7676L7.21875 11.7178H7.20996C7.06443 11.6501 6.93333 11.588 6.80566 11.5156L6.80371 11.5146C5.94866 11.0342 5.16367 10.4382 4.47168 9.74316L4.45996 9.73145L4.13184 9.40918C3.3849 8.64088 2.76453 7.75779 2.29395 6.79297C2.05103 6.27868 1.8784 5.73447 1.78125 5.1748L1.74219 4.9209L1.74023 4.90723L1.7041 4.66992C1.64243 4.1255 1.72053 3.57309 1.93262 3.06543C2.09061 2.80822 2.28118 2.57233 2.5 2.36426L2.5166 2.34961L2.53027 2.33301C2.60146 2.25231 2.68954 2.18699 2.78711 2.1416C2.87447 2.10103 2.96852 2.07759 3.06445 2.07129Z" stroke="white"/>
<path d="M12.3716 6.83584C12.2543 6.83433 12.1422 6.78709 12.0592 6.70418C11.9762 6.62127 11.9288 6.50924 11.9271 6.39192C11.928 5.8202 11.8162 5.2539 11.598 4.72544C11.3799 4.19698 11.0596 3.71672 10.6557 3.31216C10.2517 2.90759 9.77192 2.58665 9.24378 2.3677C8.71564 2.14875 8.14951 2.03609 7.57779 2.03617C7.5181 2.03833 7.45859 2.02844 7.4028 2.0071C7.34702 1.98575 7.29612 1.95337 7.25312 1.91191C7.21013 1.87045 7.17594 1.82075 7.15258 1.76578C7.12922 1.7108 7.11719 1.65169 7.11719 1.59196C7.11719 1.53223 7.12922 1.47312 7.15258 1.41815C7.17594 1.36317 7.21013 1.31347 7.25312 1.27201C7.29612 1.23055 7.34702 1.19818 7.4028 1.17683C7.45859 1.15548 7.5181 1.14559 7.57779 1.14775C8.26619 1.14775 8.94783 1.28344 9.58376 1.54705C10.2197 1.81067 10.7974 2.19704 11.2839 2.68409C11.7704 3.17113 12.1561 3.74929 12.4191 4.3855C12.682 5.02172 12.8169 5.70352 12.8161 6.39192C12.8161 6.45029 12.8046 6.50809 12.7823 6.56202C12.7599 6.61595 12.7272 6.66495 12.6859 6.70623C12.6447 6.7475 12.5957 6.78025 12.5417 6.80258C12.4878 6.82492 12.43 6.83584 12.3716 6.83584Z" fill="white"/>
</svg>
