<svg width="19" height="19" viewBox="0 0 19 19" fill="none" xmlns="http://www.w3.org/2000/svg">
<path d="M4.0625 2.83691C4.20114 2.85844 4.33506 2.90355 4.45801 2.97168C4.59572 3.048 4.71762 3.15104 4.81543 3.27441L4.83203 3.2959L4.85059 3.31543C5.04069 3.52217 5.24872 3.73015 5.44531 3.9248C5.64633 4.12384 5.83341 4.30749 6.00195 4.4834L6.01758 4.49902L6.50488 4.97949L6.51953 4.99316L6.53418 5.00586C6.6684 5.12497 6.75141 5.28952 6.77344 5.46875C6.76586 5.62307 6.70807 5.77189 6.60352 5.88965L6.58594 5.91113C6.45086 6.07516 6.30713 6.23222 6.15625 6.38184L6.14844 6.38867L6.1416 6.39648L5.98438 6.56152C5.82209 6.72172 5.69754 6.91458 5.61914 7.12598L5.61621 7.13574L5.6123 7.14453C5.54133 7.35319 5.51338 7.57261 5.52734 7.78906L5.53516 7.89941L5.57324 8.00293C5.7279 8.41696 5.96783 8.79364 6.27344 9.11133C6.6698 9.64556 7.07622 10.1291 7.45117 10.5996L7.46094 10.6104L7.46973 10.6211C8.24977 11.5267 9.17574 12.2957 10.209 12.8965C10.385 13.012 10.5815 13.0918 10.7891 13.1279L10.8252 13.1348L10.8613 13.1377C11.0759 13.1537 11.2956 13.1215 11.501 13.04L11.5547 13.0186L11.6045 12.9893C11.9541 12.7834 12.2644 12.52 12.5234 12.21L12.5283 12.2031C12.6704 12.0296 12.87 11.9145 13.0898 11.876C13.2881 11.8913 13.4753 11.9772 13.6152 12.1201L13.6396 12.1455L13.666 12.168C13.7866 12.2701 13.9299 12.4189 14.1045 12.6016L14.1074 12.6055L14.3428 12.8486L14.3516 12.8574L14.3604 12.8652L14.6035 13.1016L15.0088 13.5127L15.0264 13.5312L15.0449 13.5479C15.2591 13.738 15.4596 13.9417 15.6475 14.1562C15.7411 14.295 15.7843 14.4606 15.7725 14.627C15.7055 14.879 15.5621 15.1042 15.3594 15.2695L15.3281 15.2959L15.2998 15.3242C14.9913 15.637 14.6231 15.8861 14.2178 16.0557C13.8126 16.2251 13.3776 16.3124 12.9385 16.3125H12.7148C11.6882 16.2556 10.6827 15.9952 9.75781 15.5459L9.60352 15.4707H9.58984C9.40386 15.3842 9.23764 15.3055 9.07617 15.2139L9.07422 15.2129L8.65527 14.9678C7.68876 14.3799 6.79605 13.6775 5.99707 12.875L5.98828 12.8662L5.97852 12.8574L5.5459 12.4316C4.55969 11.4171 3.74006 10.2508 3.11914 8.97656C2.75587 8.20593 2.51366 7.38351 2.40039 6.53906L2.39746 6.51953L2.39355 6.49902C2.24126 5.69517 2.32873 4.86513 2.64258 4.11035C2.84777 3.77739 3.09439 3.47175 3.37793 3.20215L3.40137 3.17969L3.42383 3.1543C3.51032 3.05638 3.61594 2.97702 3.73438 2.92188C3.83767 2.87382 3.94918 2.84562 4.0625 2.83691Z" stroke="#014579" stroke-width="1.5"/>
<path d="M10.043 2.02344H10.0605C10.9087 2.02344 11.7487 2.19086 12.5322 2.51562C13.3158 2.84043 14.0275 3.3169 14.627 3.91699C15.2264 4.5171 15.7014 5.22976 16.0254 6.01367C16.3493 6.7975 16.5156 7.63725 16.5146 8.48535V8.48633C16.5146 8.49804 16.5123 8.50968 16.5078 8.52051C16.5033 8.53136 16.4966 8.54149 16.4883 8.5498C16.4801 8.55795 16.4706 8.56486 16.46 8.56934C16.4526 8.5724 16.4416 8.5739 16.4277 8.57422C16.4036 8.57299 16.3804 8.56401 16.3633 8.54688C16.3543 8.5379 16.3476 8.52709 16.3428 8.51562L16.335 8.47852C16.3352 7.65667 16.1739 6.84273 15.8604 6.08301C15.5456 5.32071 15.0837 4.62754 14.501 4.04395C13.9182 3.46033 13.2257 2.99749 12.4639 2.68164C11.702 2.3658 10.8853 2.20301 10.0605 2.20312H10.0518L10.043 2.2041C10.0309 2.20454 10.0181 2.20159 10.0068 2.19727C9.9957 2.19294 9.98517 2.187 9.97656 2.17871C9.96785 2.1703 9.96079 2.15958 9.95605 2.14844C9.95144 2.13741 9.94922 2.12524 9.94922 2.11328C9.94926 2.10127 9.95136 2.08919 9.95605 2.07812C9.96076 2.06707 9.96794 2.05719 9.97656 2.04883C9.98522 2.04048 9.99561 2.03363 10.0068 2.0293C10.0181 2.02497 10.0309 2.023 10.043 2.02344Z" stroke="#014579"/>
</svg>
