<svg width="21" height="21" viewBox="0 0 21 21" fill="none" xmlns="http://www.w3.org/2000/svg">
<path d="M7.71536 2.28507C8.12703 2.34943 9.19446 6.31186 9.1301 6.72352C9.00138 7.54686 7.63766 8.17711 7.09728 8.93608C6.5569 9.69506 7.25151 10.6471 7.94612 11.5992C8.21702 11.9705 9.33535 13.5033 10.223 13.2203C11.1107 12.9374 12.1271 11.8311 12.9505 11.9598C13.3621 12.0242 16.8097 14.2501 16.7453 14.6617C16.4879 16.3084 15.0598 17.3503 13.7605 17.5689C12.4611 17.7875 11.6378 17.6588 10.0555 16.9897C8.47317 16.3206 7.30253 15.7158 5.566 13.3357C3.82946 10.9556 3.61087 9.65621 3.45664 7.94519C3.30241 6.23416 3.43113 5.41083 4.03588 4.24019C4.64062 3.06955 6.0687 2.02763 7.71536 2.28507Z" fill="white" stroke="white" stroke-width="2" stroke-linecap="round" stroke-linejoin="round"/>
</svg>
