<svg width="20" height="20" viewBox="0 0 20 20" fill="none" xmlns="http://www.w3.org/2000/svg">
<path d="M7.44898 2.17381C7.86156 2.23199 8.98821 6.178 8.93003 6.59058C8.81365 7.41575 7.45953 8.06636 6.93057 8.83334C6.40161 9.60032 7.11041 10.5419 7.8192 11.4834C8.09563 11.8506 9.23679 13.3665 10.1201 13.0703C11.0035 12.7741 12.0032 11.6527 12.8284 11.7691C13.241 11.8272 16.7215 14.0013 16.6633 14.4138C16.4306 16.0642 15.0182 17.1274 13.7223 17.3654C12.4264 17.6034 11.6012 17.487 10.009 16.8417C8.4169 16.1964 7.23733 15.6092 5.46535 13.2554C3.69336 10.9015 3.45534 9.60559 3.2755 7.89707C3.09567 6.18855 3.21204 5.36338 3.79918 4.18382C4.38633 3.00425 5.79864 1.94106 7.44898 2.17381Z" fill="#014579" stroke="#014579" stroke-width="2" stroke-linecap="round" stroke-linejoin="round"/>
</svg>
