<svg width="20" height="20" viewBox="0 0 20 20" fill="none" xmlns="http://www.w3.org/2000/svg">
<path d="M6.09055 14.8189L8.99964 8.27346M8.05419 10.4553C8.37201 11.3738 9.09419 11.9098 9.90873 11.9098C11.4149 11.9098 12.636 10.7796 12.636 9.00073C12.6366 8.4697 12.5209 7.94497 12.2971 7.46343C12.0732 6.98189 11.7466 6.55523 11.3401 6.21344C10.9337 5.87165 10.4574 5.62302 9.94457 5.48502C9.43177 5.34703 8.89498 5.32303 8.37191 5.4147C7.84885 5.50637 7.35221 5.71149 6.9169 6.01565C6.4816 6.3198 6.11819 6.7156 5.85223 7.17524C5.58626 7.63487 5.4242 8.14718 5.37742 8.67615C5.33064 9.20512 5.40029 9.73792 5.58146 10.2371" stroke="#014579" stroke-width="1.63636" stroke-linecap="round" stroke-linejoin="round"/>
<path d="M2.45313 9.00053C2.45312 9.86009 2.62243 10.7112 2.95137 11.5054C3.28031 12.2995 3.76244 13.0211 4.37024 13.6289C4.97805 14.2367 5.69961 14.7188 6.49374 15.0477C7.28787 15.3767 8.13902 15.546 8.99858 15.546C9.85814 15.546 10.7093 15.3767 11.5034 15.0477C12.2975 14.7188 13.0191 14.2367 13.6269 13.6289C14.2347 13.0211 14.7169 12.2995 15.0458 11.5054C15.3747 10.7112 15.544 9.86009 15.544 9.00053C15.544 8.14097 15.3747 7.28983 15.0458 6.4957C14.7169 5.70156 14.2347 4.98 13.6269 4.3722C13.0191 3.7644 12.2975 3.28226 11.5034 2.95332C10.7093 2.62438 9.85814 2.45508 8.99858 2.45508C8.13902 2.45508 7.28787 2.62438 6.49374 2.95332C5.69961 3.28226 4.97805 3.7644 4.37024 4.3722C3.76244 4.98 3.28031 5.70156 2.95137 6.4957C2.62243 7.28983 2.45312 8.14097 2.45313 9.00053Z" stroke="#014579" stroke-width="1.63636" stroke-linecap="round" stroke-linejoin="round"/>
</svg>
