<svg width="210" height="210" viewBox="0 0 210 210" fill="none" xmlns="http://www.w3.org/2000/svg">
<g clip-path="url(#clip0_762_19984)">
<path d="M105.004 35.8996C96.2152 35.8996 89.0903 28.7748 89.0903 19.9864V12.6708C89.0903 5.88974 94.5872 0.392822 101.368 0.392822H108.639C115.42 0.392822 120.917 5.88974 120.917 12.6708V19.9864C120.917 28.7752 113.792 35.8996 105.004 35.8996Z" fill="#FFDFCF"/>
<path d="M120.919 12.6704V19.6665C120.919 28.4791 113.892 35.859 105.079 35.9C102.853 35.9139 100.65 35.458 98.6123 34.5621C104.22 32.1036 108.174 27.0275 108.174 20.5122L108.136 9.17468C108.136 4.32581 106.217 0.392822 101.369 0.392822H108.641C115.422 0.392822 120.919 5.88974 120.919 12.6704Z" fill="#FFCEBF"/>
<path d="M144.23 187.23L133.011 193.17L116.985 187.23L105.003 132.006L93.0204 187.23L78.948 193.17L65.7754 187.23L79.0825 110.288H130.923L144.23 187.23Z" fill="#60B7FF"/>
<path d="M100.31 132.006H105.002L93.0202 187.23L84.4885 190.831L80.2368 187.23L90.5034 139.913C91.505 135.298 95.5881 132.006 100.31 132.006ZM144.23 187.23L133.011 193.17L131.446 187.23L118.139 110.288H130.923L144.23 187.23Z" fill="#26A6FE"/>
<path d="M143.624 48.4541L133.688 58.3856C132.811 59.2628 132.115 60.3042 131.64 61.4504C131.165 62.5966 130.921 63.8251 130.921 65.0658V112.057H79.0803V65.0654C79.0803 63.825 78.836 62.5966 78.3613 61.4506C77.8867 60.3045 77.1909 59.2632 76.3138 58.386L66.3818 48.4541L69.6959 35.9L80.8099 34.0256L85.6313 38.847C90.7681 43.9839 97.735 46.8701 105 46.8707C112.264 46.8714 119.232 43.9864 124.369 38.8503L129.196 34.0256L140.303 37.7958L143.624 48.4541Z" fill="#FEE97D"/>
<path d="M143.622 48.4551L133.69 58.3875C132.812 59.2645 132.115 60.306 131.64 61.4525C131.165 62.5989 130.92 63.8278 130.92 65.0689V112.06H118.137V65.0689C118.137 63.8278 118.381 62.5989 118.857 61.4525C119.332 60.306 120.028 59.2645 120.907 58.3875L137.231 42.0632L141.798 42.5968L143.622 48.4551Z" fill="#FEDF30"/>
<path d="M137.451 96.7014C137.451 116.2 105.001 131.464 105.001 131.464L98.6094 131.43C82.1593 128.425 69.6963 114.019 69.6963 96.7014C69.6963 79.3818 82.1568 64.9734 98.6094 61.9702L106.976 62.3385C106.976 62.3385 137.451 77.203 137.451 96.7014Z" fill="#70D162"/>
<path d="M140.304 96.7029C140.304 116.202 124.5 132.006 105.001 132.006C102.858 132.007 100.719 131.815 98.6099 131.431C115.058 128.423 127.521 114.02 127.521 96.7033C127.521 79.3865 115.058 64.9798 98.6099 61.9713C100.719 61.5871 102.858 61.3946 105.001 61.3963C124.5 61.3958 140.304 77.2041 140.304 96.7029Z" fill="#58C945"/>
<path d="M99.761 97.2886L92.7539 90.2815C90.2724 87.8 86.2492 87.8 83.7673 90.2815C81.2859 92.7629 81.2859 96.7861 83.7673 99.268L95.8288 111.329C98.5576 114.058 102.982 114.058 105.711 111.329L124.044 92.9963C126.525 90.5148 126.525 86.4916 124.044 84.0098C121.562 81.5283 117.539 81.5283 115.057 84.0098L101.779 97.2886C101.512 97.5561 101.149 97.7064 100.77 97.7064C100.392 97.7064 100.029 97.5561 99.761 97.2886Z" fill="#DCF5F8"/>
<path d="M174.658 17.4157L137.231 42.0629L129.195 34.0263L160.23 2.98727C164.213 -0.995757 170.671 -0.995757 174.658 2.98727C178.641 6.9703 178.641 13.4327 174.658 17.4157Z" fill="#FFDFCF"/>
<path d="M174.658 17.4173L143.624 48.4551L137.233 42.0636L161.875 17.4177C165.859 13.4335 165.859 6.96943 161.875 2.98968C161.615 2.72822 161.341 2.48212 161.052 2.25263C165.058 -0.977349 170.938 -0.730025 174.658 2.98968C178.642 6.96902 178.642 13.4331 174.658 17.4173Z" fill="#FFCEBF"/>
<path d="M80.8108 34.0263L66.3823 48.4547L35.3437 17.4157C31.3607 13.4327 31.3607 6.9703 35.3437 2.98727C39.3313 -0.995757 45.7892 -0.995757 49.7722 2.98727L80.8108 34.0263Z" fill="#FFDFCF"/>
<path d="M146.014 210.001H127.087C123.844 210.001 121.113 207.589 120.704 204.367L116.983 187.229H131.445L150.948 202.425C152.521 205.991 149.909 210.001 146.014 210.001Z" fill="#918291"/>
<path d="M146.013 210.001H133.23C137.124 210.001 139.736 205.991 138.164 202.425L131.444 187.229H144.228L150.947 202.425C152.52 205.991 149.908 210.001 146.013 210.001Z" fill="#7A6D79"/>
<path d="M80.2376 187.229L89.3008 204.367C88.8919 207.589 86.1603 210.001 82.9176 210.001H63.9901C60.0957 210.001 57.4834 205.991 59.0559 202.425L65.7755 187.229H80.2376Z" fill="#918291"/>
<path d="M93.0191 187.229L89.2994 204.367C88.8905 207.589 86.1589 210.001 82.9162 210.001H70.1328C73.3755 210.001 76.1067 207.589 76.5161 204.367L80.2358 187.229H93.0191Z" fill="#7A6D79"/>
</g>
<defs>
<clipPath id="clip0_762_19984">
<rect width="210" height="210" fill="white"/>
</clipPath>
</defs>
</svg>
