<svg width="89" height="89" viewBox="0 0 89 89" fill="none" xmlns="http://www.w3.org/2000/svg">
<g filter="url(#filter0_d_762_19980)">
<circle cx="44.1816" cy="43.0908" r="41.73" fill="url(#paint0_linear_762_19980)" stroke="#014579" stroke-width="0.54"/>
<path d="M42.2571 30.0878C41.1524 30.2809 37.2548 31.263 35.9373 34.2531C35.1905 35.9511 33.2763 38.9707 32.1286 42.1482C31.4581 44.1182 30.9646 46.1441 30.654 48.2017C30.6097 48.4771 30.6487 48.7594 30.7658 49.0125C30.8829 49.2657 31.0728 49.4782 31.3113 49.6228C33.9344 51.1089 36.911 51.857 39.9251 51.7878C46.0666 51.7878 47.7223 50.4795 47.7223 50.4795C47.8294 51.0671 50.5264 55.7932 50.5264 55.7932C56.8278 52.3747 58.6702 45.1926 57.9755 40.8131C56.0528 41.374 54.6113 43.4834 54.6113 43.4834C54.6113 43.4834 52.4216 41.6938 50.5531 41.6938C48.6847 41.6938 44.32 44.1245 44.32 44.1245C44.0614 43.8358 43.7405 43.6097 43.3817 43.4633C43.0229 43.3168 42.6354 43.2538 42.2487 43.279C40.7888 43.279 38.2792 44.9784 38.2792 44.9784C37.8647 43.1751 37.6231 41.3364 37.5578 39.4872C37.6664 37.8064 38.2329 36.1873 39.1959 34.8055C39.1959 34.8055 41.5455 35.126 42.186 34.6448C42.4371 34.4803 42.6699 34.2895 42.8806 34.0756C42.8806 34.0756 44.6962 35.3571 44.9097 34.0403C44.9609 33.8578 44.956 33.6641 44.8955 33.4844C44.8351 33.3047 44.722 33.1473 44.5708 33.0328C44.5708 33.0328 45.3902 32.5087 44.4652 31.1376C43.5401 29.7666 42.9694 29.9631 42.2571 30.0878Z" stroke="white" stroke-width="2.18182" stroke-linecap="round" stroke-linejoin="round"/>
</g>
<defs>
<filter id="filter0_d_762_19980" x="-0.000177622" y="-8.88109e-05" width="88.3636" height="88.3636" filterUnits="userSpaceOnUse" color-interpolation-filters="sRGB">
<feFlood flood-opacity="0" result="BackgroundImageFix"/>
<feColorMatrix in="SourceAlpha" type="matrix" values="0 0 0 0 0 0 0 0 0 0 0 0 0 0 0 0 0 0 127 0" result="hardAlpha"/>
<feOffset dy="1.09091"/>
<feGaussianBlur stdDeviation="1.09091"/>
<feComposite in2="hardAlpha" operator="out"/>
<feColorMatrix type="matrix" values="0 0 0 0 0 0 0 0 0 0 0 0 0 0 0 0 0 0 0.25 0"/>
<feBlend mode="normal" in2="BackgroundImageFix" result="effect1_dropShadow_762_19980"/>
<feBlend mode="normal" in="SourceGraphic" in2="effect1_dropShadow_762_19980" result="shape"/>
</filter>
<linearGradient id="paint0_linear_762_19980" x1="44.1816" y1="1.09082" x2="44.1816" y2="85.0908" gradientUnits="userSpaceOnUse">
<stop stop-color="#698AF8"/>
<stop offset="1" stop-color="#5EDB9A"/>
</linearGradient>
</defs>
</svg>
