<svg width="34" height="34" viewBox="0 0 34 34" fill="none" xmlns="http://www.w3.org/2000/svg">
<path d="M14.9847 3.9062C13.8799 4.09924 9.98238 5.08138 8.66488 8.07147C7.91806 9.76943 6.00381 12.7891 4.85611 15.9666C4.18567 17.9366 3.69218 19.9624 3.38149 22.0201C3.33729 22.2955 3.37622 22.5778 3.49331 22.8309C3.61041 23.084 3.80035 23.2965 4.03883 23.4411C6.66198 24.9272 9.63854 25.6754 12.6526 25.6062C18.7941 25.6062 20.4498 24.2979 20.4498 24.2979C20.5569 24.8855 23.2539 29.6115 23.2539 29.6115C29.5554 26.1931 31.3977 19.0109 30.7031 14.6315C28.7804 15.1923 27.3389 17.3017 27.3389 17.3017C27.3389 17.3017 25.1491 15.5122 23.2807 15.5122C21.4122 15.5122 17.0476 17.9429 17.0476 17.9429C16.7889 17.6542 16.4681 17.4281 16.1092 17.2816C15.7504 17.1352 15.363 17.0722 14.9762 17.0974C13.5164 17.0974 11.0068 18.7968 11.0068 18.7968C10.5923 16.9935 10.3507 15.1547 10.2853 13.3055C10.3939 11.6247 10.9604 10.0057 11.9234 8.62384C11.9234 8.62384 14.2731 8.9444 14.9135 8.4632C15.1646 8.29865 15.3975 8.10781 15.6082 7.89393C15.6082 7.89393 17.4238 9.17549 17.6373 7.8587C17.6885 7.67615 17.6835 7.48242 17.6231 7.30272C17.5626 7.12303 17.4495 6.96569 17.2984 6.8512C17.2984 6.8512 18.1178 6.32702 17.1927 4.95597C16.2676 3.58493 15.6969 3.78149 14.9847 3.9062Z" stroke="white" stroke-width="2.18182" stroke-linecap="round" stroke-linejoin="round"/>
</svg>
