<svg width="20" height="20" viewBox="0 0 20 20" fill="none" xmlns="http://www.w3.org/2000/svg">
<g clip-path="url(#clip0_726_11794)">
<path d="M4.86927 2.04614H8.22164C9.21655 2.04614 10.0178 2.04614 10.6489 2.14626C11.3035 2.2509 11.8544 2.47375 12.2918 2.99243C12.7298 3.51047 12.918 4.16351 13.0064 4.93863C13.0909 5.68533 13.0909 6.6342 13.0909 7.81239V8.55263C13.0909 9.73081 13.0909 10.6797 13.0064 11.427C12.918 12.2021 12.7298 12.8545 12.2918 13.3726C11.8544 13.8913 11.3035 14.1141 10.6484 14.2188C10.0178 14.3189 9.21655 14.3189 8.22164 14.3189H4.86927C3.87436 14.3189 3.07309 14.3189 2.442 14.2188C1.78745 14.1141 1.23655 13.8913 0.798545 13.3726C0.361091 12.8545 0.172909 12.2021 0.0845455 11.4264C0 10.6797 0 9.73081 0 8.55263V7.81239C0 6.6342 0 5.68533 0.0845455 4.93798C0.172909 4.16287 0.361091 3.51047 0.799091 2.99179C1.23655 2.47375 1.788 2.2509 2.44255 2.14626C3.07309 2.04614 3.87436 2.04614 4.86927 2.04614ZM2.58764 3.42715C2.05418 3.51176 1.77164 3.66743 1.57036 3.90514C1.36855 4.14413 1.23764 4.47873 1.16618 5.11045C1.092 5.7609 1.09091 6.62322 1.09091 7.85954V8.50547C1.09091 9.74179 1.092 10.6041 1.16618 11.2546C1.23764 11.8863 1.36909 12.2209 1.56982 12.4592C1.77164 12.6982 2.05418 12.8532 2.58764 12.9385C3.13691 13.0257 3.86509 13.027 4.90909 13.027H8.18182C9.22582 13.027 9.954 13.0257 10.5033 12.9385C11.0367 12.8532 11.3193 12.6976 11.5205 12.4592C11.7224 12.2209 11.8533 11.8863 11.9253 11.2546C11.9989 10.6041 12 9.74179 12 8.50547V7.85954C12 6.62322 11.9989 5.7609 11.9253 5.11045C11.8533 4.47873 11.7218 4.14413 11.5205 3.90578C11.3193 3.66679 11.0367 3.51176 10.5033 3.42715C9.954 3.3393 9.22582 3.33801 8.18182 3.33801H4.90909C3.86509 3.33801 3.13691 3.3393 2.58764 3.42715ZM4.80055 4.92959L9.54327 8.18315L4.80055 11.4361V4.92959ZM5.89145 7.17098V9.19533L7.36691 8.18251L5.89145 7.17098Z" fill="#014579"/>
</g>
<defs>
<clipPath id="clip0_726_11794">
<rect width="19.6364" height="19.6364" fill="white"/>
</clipPath>
</defs>
</svg>
